<mxfile host="app.diagrams.net" modified="2024-03-10T09:36:58.756Z" agent="Mozilla/5.0 (Windows NT 10.0; Win64; x64) AppleWebKit/537.36 (KHTML, like Gecko) Chrome/122.0.0.0 Safari/537.36" etag="lGSmTBe8p0di9_R3zWe2" version="24.0.2" type="github">
  <diagram name="Page-1" id="ReCHwLZydMTFlminMiEf">
    <mxGraphModel dx="913" dy="530" grid="1" gridSize="10" guides="1" tooltips="1" connect="1" arrows="1" fold="1" page="1" pageScale="1" pageWidth="850" pageHeight="1100" math="0" shadow="0">
      <root>
        <mxCell id="0" />
        <mxCell id="1" parent="0" />
        <mxCell id="OzLQzeTqsJq5WQBJtTH5-3" value="" style="rounded=0;whiteSpace=wrap;html=1;fillColor=#d5e8d4;strokeColor=#82b366;" parent="1" vertex="1">
          <mxGeometry x="99.3" y="357" width="630" height="80" as="geometry" />
        </mxCell>
        <mxCell id="OzLQzeTqsJq5WQBJtTH5-4" value="" style="rounded=0;whiteSpace=wrap;html=1;fillColor=#fff2cc;strokeColor=#d6b656;" parent="1" vertex="1">
          <mxGeometry x="99.3" y="447" width="630" height="80" as="geometry" />
        </mxCell>
        <mxCell id="OzLQzeTqsJq5WQBJtTH5-1" value="" style="rounded=0;whiteSpace=wrap;html=1;fillColor=none;strokeWidth=2;" parent="1" vertex="1">
          <mxGeometry x="99.3" y="537" width="630" height="80" as="geometry" />
        </mxCell>
        <mxCell id="OzLQzeTqsJq5WQBJtTH5-5" value="" style="verticalLabelPosition=bottom;html=1;verticalAlign=top;align=center;strokeColor=#666666;fillColor=#f5f5f5;shape=mxgraph.azure.computer;pointerEvents=1;fontColor=#333333;" parent="1" vertex="1">
          <mxGeometry x="375.42" y="260" width="77.78" height="70" as="geometry" />
        </mxCell>
        <mxCell id="OzLQzeTqsJq5WQBJtTH5-6" value="" style="sketch=0;outlineConnect=0;fillColor=#333333;strokeColor=#001DBC;dashed=0;verticalLabelPosition=bottom;verticalAlign=top;align=center;html=1;fontSize=12;fontStyle=0;aspect=fixed;pointerEvents=1;shape=mxgraph.aws4.user;fontColor=#ffffff;" parent="1" vertex="1">
          <mxGeometry x="399.31" y="200" width="30" height="30" as="geometry" />
        </mxCell>
        <mxCell id="OzLQzeTqsJq5WQBJtTH5-8" value="" style="shape=image;verticalLabelPosition=bottom;labelBackgroundColor=default;verticalAlign=top;aspect=fixed;imageAspect=0;image=https://static-00.iconduck.com/assets.00/nextjs-icon-2048x1234-pqycciiu.png;" parent="1" vertex="1">
          <mxGeometry x="614.67" y="367" width="99.59" height="60" as="geometry" />
        </mxCell>
        <mxCell id="OzLQzeTqsJq5WQBJtTH5-9" value="" style="shape=image;verticalLabelPosition=bottom;labelBackgroundColor=default;verticalAlign=top;aspect=fixed;imageAspect=0;image=https://upload.wikimedia.org/wikipedia/commons/thumb/3/3c/Flask_logo.svg/1200px-Flask_logo.svg.png;" parent="1" vertex="1">
          <mxGeometry x="612.13" y="467" width="102.13" height="40" as="geometry" />
        </mxCell>
        <mxCell id="OzLQzeTqsJq5WQBJtTH5-16" value="Dapp/wallet" style="rounded=1;whiteSpace=wrap;html=1;fillColor=#e1d5e7;strokeColor=#9673a6;fontSize=12;flipH=0;" parent="1" vertex="1">
          <mxGeometry x="209.3" y="379.5" width="81.27" height="40" as="geometry" />
        </mxCell>
        <mxCell id="OzLQzeTqsJq5WQBJtTH5-17" value="Intelligent Dashboard" style="rounded=1;whiteSpace=wrap;html=1;fillColor=#C2E8C1;strokeColor=#82b366;fontSize=12;flipH=0;" parent="1" vertex="1">
          <mxGeometry x="308.66" y="377" width="75.64" height="45" as="geometry" />
        </mxCell>
        <mxCell id="OzLQzeTqsJq5WQBJtTH5-18" value="Predictive Analysis" style="rounded=1;whiteSpace=wrap;html=1;fillColor=#C2E8C1;strokeColor=#82b366;fontSize=12;flipH=0;" parent="1" vertex="1">
          <mxGeometry x="399.3" y="378.25" width="81.27" height="42.5" as="geometry" />
        </mxCell>
        <mxCell id="OzLQzeTqsJq5WQBJtTH5-19" value="Early Warning System" style="rounded=1;whiteSpace=wrap;html=1;fillColor=#C2E8C1;strokeColor=#82b366;fontSize=12;flipH=0;" parent="1" vertex="1">
          <mxGeometry x="499.3" y="379.5" width="81.27" height="40" as="geometry" />
        </mxCell>
        <mxCell id="OzLQzeTqsJq5WQBJtTH5-22" value="Model Machine Learning" style="text;html=1;align=center;verticalAlign=middle;whiteSpace=wrap;rounded=0;fontSize=9;" parent="1" vertex="1">
          <mxGeometry x="425" y="472" width="60" height="30" as="geometry" />
        </mxCell>
        <mxCell id="OzLQzeTqsJq5WQBJtTH5-23" value="REST API" style="rounded=1;whiteSpace=wrap;html=1;fillColor=#ffe6cc;strokeColor=#d79b00;fontSize=11;" parent="1" vertex="1">
          <mxGeometry x="324.3" y="470.75" width="90" height="32.5" as="geometry" />
        </mxCell>
        <mxCell id="OzLQzeTqsJq5WQBJtTH5-24" value="PostgreSQL" style="rounded=1;whiteSpace=wrap;html=1;fillColor=#ffe6cc;strokeColor=#d79b00;fontSize=11;" parent="1" vertex="1">
          <mxGeometry x="216.49" y="467" width="84.79" height="40" as="geometry" />
        </mxCell>
        <mxCell id="OzLQzeTqsJq5WQBJtTH5-25" value="SMEs" style="text;html=1;align=center;verticalAlign=middle;whiteSpace=wrap;rounded=0;" parent="1" vertex="1">
          <mxGeometry x="384.31" y="230" width="60" height="30" as="geometry" />
        </mxCell>
        <mxCell id="OzLQzeTqsJq5WQBJtTH5-30" value="Front-end" style="text;html=1;align=center;verticalAlign=middle;whiteSpace=wrap;rounded=0;" parent="1" vertex="1">
          <mxGeometry x="124.51" y="384.5" width="60" height="30" as="geometry" />
        </mxCell>
        <mxCell id="OzLQzeTqsJq5WQBJtTH5-31" value="Back-end" style="text;html=1;align=center;verticalAlign=middle;whiteSpace=wrap;rounded=0;" parent="1" vertex="1">
          <mxGeometry x="124.51" y="472" width="60" height="30" as="geometry" />
        </mxCell>
        <mxCell id="BZNns3eWjMlGVyCHPYoQ-9" value="" style="shape=image;html=1;verticalAlign=top;verticalLabelPosition=bottom;labelBackgroundColor=#ffffff;imageAspect=0;aspect=fixed;image=https://cdn4.iconfinder.com/data/icons/48-bubbles/48/04.Bank-128.png;imageBackground=none;imageBorder=none;" vertex="1" parent="1">
          <mxGeometry x="629.3" y="547" width="50" height="50" as="geometry" />
        </mxCell>
        <mxCell id="BZNns3eWjMlGVyCHPYoQ-10" value="" style="shape=image;verticalLabelPosition=bottom;labelBackgroundColor=default;verticalAlign=top;aspect=fixed;imageAspect=0;image=https://besu.hyperledger.org/assets/images/private-architecture-5a4d514abd93e693a77b25cacdfc9ef7.jpeg;clipPath=inset(14.92% 2.67% 9.16% 2.33%);" vertex="1" parent="1">
          <mxGeometry x="89.99999999999999" y="627" width="648.62" height="330" as="geometry" />
        </mxCell>
        <mxCell id="BZNns3eWjMlGVyCHPYoQ-11" value="Central Bank Digital Currency (CBDC) Sandbox" style="text;whiteSpace=wrap;align=center;fontStyle=1;fontSize=16;fontColor=#158586;" vertex="1" parent="1">
          <mxGeometry x="216.49" y="557" width="395.64" height="40" as="geometry" />
        </mxCell>
        <mxCell id="BZNns3eWjMlGVyCHPYoQ-14" value="Central Bank" style="text;html=1;align=center;verticalAlign=middle;whiteSpace=wrap;rounded=0;" vertex="1" parent="1">
          <mxGeometry x="604.3" y="597" width="100" height="20" as="geometry" />
        </mxCell>
        <mxCell id="BZNns3eWjMlGVyCHPYoQ-8" value="" style="shape=image;verticalLabelPosition=bottom;labelBackgroundColor=default;verticalAlign=top;aspect=fixed;imageAspect=0;image=data:image/png,iVBORw0KGgoAAAANSUhEUgAABQAAAAKACAYAAADD89WhAAAACXBIWXMAAAsTAAALEwEAmpwYAAAAeGVYSWZNTQAqAAAACAAFARIAAwAAAAEAAQAAARoABQAAAAEAAABKARsABQAAAAEAAABSASgAAwAAAAEAAgAAh2kABAAAAAEAAABaAAAAAAAAAEgAAAABAAAASAAAAAEAAqACAAQAAAABAAAFAKADAAQAAAABAAACgAAAAADnwurCAAAgAElEQVR4nOzdeXxcd3X///f53BnJu53EiWNZ1oyWOAEBhbqB0A0DTQuUAl3gS1lCwlLKGkhbtm4pW9lboCwpS5yQ0PxCWUIpa6EGWqCkhhIQJI4sjWTZsWNncbxJmrmf8/tDCoTgRZp7RzOSXs8H4hFLc8/nSLPecz+fz5EAAAAAAAAAAAAAAAAAAAAAAAAAAAAAAAAAAAAAAAAAAAAAAAAAAAAAAAAAAAAAAAAAAAAAAAAAAAAAAAAAAAAAAAAAAAAAAAAAAAAAAAAAAAAAAAAAAAAAAAAAAAAAAAAAAAAAAAAAAAAAAAAAAAAAAAAAAAAAAAAAAAAAAAAAAAAAAAAAAAAAAAAAAAAAAAAAAAAAAAAAAAAAAAAAAAAAAAAAAAAAAAAAAAAAAAAAAAAAAAAAAAAAAAAAAAAAAAAAAAAAAAAAAAAAAAAAAAAAAAAAAAAAAAAAAAAAAAAAAAAAAAAAAAAAAAAAAAAAAAAAAAAAAAAAAAAAAAAAAAAAAAAAAAAAAAAAAAAAAAAAAAAAAAAAAAAAAAAAAAAAAAAAAAAAAAAAAAAAAAAAAAAAAAAAAAAAAAAAAAAAAAAAAAAAAAAAAAAAAAAAAAAAAAAAAAAAAAAAAAAAAAAAAAAAAAAAAAAAAAAAAAAAAAAAAAAAAAAAAAAAAAAAAAAAAAAAAAAAAAAAAAAAAAAAAAAAAAAAAAAAAAAAAAAAAAAAAAAAAAAAAAAAAAAAAAAAAAAAAAAAAAAAAAAAAAAAAAAAAAAAAAAAAAAAAAAAAAAAAAAAAAAAAAAAAAAAAAAAAAAAAAAAAAAAAAAAAAAAAAAAAAAAAAAAAAAAAAAAAAAAAAAAAAAAAAAAAAAAAAAAAAAAAAAAAAAAAAAAAAAAAAAAAAAAAAAAAAAAAAAAAAAAAAAAAAAAAAAAAAAAAAAAAAAAAAAAAAAAAAAAAAAAAAAAAAAAAAAAAAAAAAAAAAAAAAAAAAAAAAAAAAAAAAAAAAAAAAAAAAAAAAAAAAAAAAAAAAAAAAAAAAAAAAAAAAAAAAAAAAAAAAAAAAAAAAAAAAAAAAAAAAAAAAAAAAAAAAAAAAAAAAAAAAAAAAAAAAAAAAAAAAAAAAAAAAAAAAAAAAAAAAAAAAAAAAAAAAAAAAAAAAAAAAAAAAAAAAAAAAAAAAAAAAAAAAAAAAAAAAAAAAAAAAAAAAAAAAAAAAAAAAAAAAAAAAAAAAAAAAAAAAAAAAAAAAAAAAAAAAAAAAAAAAAAAAAAAAAAAAAAAAAAAAAAAAAAAAAAAAAAAAAAAAAAAAAAAAAAAAAAAAAAAAAAAAAAAAAAAAAAAAAAAAAAAAAAAAAAAAAAAAAAAAAAAAuZNTsBNIC7bbj22g1ptbrekyQktVrVkmRk90UX3Skzb3Z6AAAAAAAAmDsUABeAjiuuWKa2ti5PksfL/VFyv0AhLJV7IkkyczNLPU3vkfRduf9HW6FwQ/GMM+4cfMITJpqbPQAAAAAAABqJAuA8dvp73rNqyfLlD/FC4YWSniW7z93px5no9/M/PyT3jwT3/8+WL//B2NOedqzhCQMAAAAAAGDOUQCcp9Zde21PUqu9xqXnWbEYvFqdXQAzWaEgr1bvlNk/e632rr3Pfe7+xmQLAAAAAACAZqEAOA+tv+qqF1qh8Eolybk+OXn82X4zFYIsSaRa7duepq+/7ZJLvphfpgAAAAAAAGg2CoDzzPorr3yFkuRvrFg8zScn8wl672zAWm3UQnjBnmc968v5BAYAAAAAAECzUQCcRzquuuq5kt7pIaxRjLnHv7cIGM0u2XfRRV/LfQAAAAAAAADMOQqA88S6q69+TOJ+tSfJBqVp4wYKQXL/nqfpH+695JJK4wYCAAAAAADAXAjNTgCntvEjH+kI7q9Xo4t/kqZnFv6yh/CGjiuuWNbYwQAAAAAAANBoFADngTRJLlMIj/QGLPs9LjMlZk/UkiVPn5sBAQAAAAAA0CgUAFvcxo98pMOlx1mhEDJ1+52NGKVicY1Lf7Tu6quXz82gAAAAAAAAaAQKgC0uLRa3WFtbf24df2fIq1VZsbglxLh5TgcGAAAAAABArigAtrBzb7hhpbtvkTWhV4u7FMJSC+GxfZ//fPvcJwAAAAAAAIA8UABsYUfuvPNsmT3Wa7XmJJCmcvdfrd5xx+nNSQAAAAAAAABZUQBsYbUk6bAlS3o0V80/7sdjlIXwwEn3NU1JAAAAAAAAAJlRAGxVl18elKb9zSr+SZpqBrJkSUdKARAAAAAAAGDeogDYuoJLq+as8++JxKjEvUNSEzYiBAAAAAAAQFYUAFtUx/r1bYlZX1NnAEqSu6J7hy6/nAIgAAAAAADAPEQBsEWFI0dc0nhTOgDfj3mzpyECAAAAAACgXhQAW9TYt789mUo7FJp8F5nJCoVbdfnlTZ6KCAAAAAAAgHpQAGxV/f0u98NNnwHoHj2EO5ubBAAAAAAAAOpFAbBVXX55TEL4vrunTcshSeTj47eFavVQ03IAAAAAAABAJhQAW1g1xsM+Pl5RkjRlfAtBFsL/pUnCDEAAAAAAAIB5igJgC1su7TL3G6xYbE4CIcjS9F/3DQ0daE4CAAAAAAAAyIoCYAurXHLJuElf1OTk3HcDDkGqVu9IzH5IAxAAAAAAAID5iwJgi6u1t9/kMf7ICoU5HdeKRcUY/3u0VPrBnA4MAAAAAACAXFEAbHG3P+MZ+0KaftQnJ48qzNHdlSTyyckxSR/Uox9dm5tBAQAAAAAA0AgUAOcBr1avMrN/t7koAJpJMUruV+99znO+0PgBAQAAAAAA0EgUAOeBPS984VEVi3/j1er3G74UOAS59G/FQuEdjR0IAAAAAAAAc4EC4Dyx5xnPuNncn6Fq9TtKkoaMYcWivFb7auJ+yegzn3lXQwYBAAAAAADAnKIAOI/sueSSm9Na7QVK0+3KeSagtbcrTdNritILdz/nOXfkGhwAAAAAAABNY81OALO3cevW3tTszSoW/9BrtUTu9QWy6bs/hJpifMeRycm33/P859+ZX6YAAAAAAABotsasJUVD3fOZz9y18vGP/7yFcExmJYWwQu6zvy/Njsr9xwrh1bft3PnuicsuO9qAdAEAAAAAANBEzACc59ZdffVZIcZrZHbhLA9N3f2DeycmXqkXvrDakOQAAAAAAHOiv7+/7UQ/O/PMgbhtm2pzmU8r2LJFhf37+xu29dnExIQ9bHCw9gkpbdQY95XX7zMwMDCZRz6YXygALgAdW7d+2M2eq9ndn5NBevnu5zznikblBQAAAADI13nnnXdG9ciR9VGF0xP5aZ5oqczWKmr98W7v7haCqmmMYyGEQ+5+j8dwOAnxUBrCncuWLbutGQWhjo6OZcva2s53HT/vzFItsUTlGNVmZnXum3VyZp64+9d3jox8RZp5gbW3t3ej12rnm9kJi7bHHU96gLtlagjg7qag/SbdZtFSBb8nrdldxYLfEwuFPYODg/dkiY/WlW8nCTRLXVcAnCXgANBQfRs2dMb29rpeo4tpmhzp6Ng79u1vH8s7r/mgv7/z9GPH2lZkjePutiTGyZ+MjNyWR17319fXtyrGuCaPWENDQ6N5xJkPNnd0LLtryZK1jRzD3e05z3nOrssvvzw2chxJVi6XSyGETOO4uy2Xxn80PLwvp7xyUy6Xl4QQznJ3m+1JtLtbW61WvWXXrj2Nyq8VPKBUWj8eQsOKDDMVQri70SfvPT09XfUeG2MM7e3td9xyyy2H8sxpodvU2bkhLRR+S9E2e/BybXz8LCXJenM/Q2bLw717u5/o4Tf980IydfofPUrBj7jsUIh+x/jhw7f1lEq3m8KwFLdbrXbj4O7dY43+vdra2s4y9zeGpPDrXu++9idTkOSupIGtT4MF1RSX9vX1fW1wcHDGBUCL8VGSbQ0WZndO7v7TrfzrZnaffgCu6IohxLui20GvVvf0lst3eNSPZb797mLxK3dSEFwwKAACAFpWT09PV4h+Vb0fCs1MRY/PaFTx51S80PYvFuPqeo6NIbH2PXsulfS1mdy+d+PGB7klz5Ppp38sk0VTXOpuvTK1z3Rsk5S6RqwQLh0aGjo4++yz6evrWzVxuPZJs3hG1ljBlaZJ8ueSZvQY6C2Xny7XCzTDi2tera4wsxn/bU86dqn7Hsmr7pq0oCG5jyVuY1Hxfw9NTFT27dt3JI9xZpRLV9fLZeHJqvMi46nc7VpuMS5pROx7mbt98pOf/E1Jd830mL6+vvZYrf2DSQ+YxVDtcl+pGDOdvZq7jctqfeXyPe6KJtsd5bfLtMOkSjT7/nDzioMPtdTfa4pLNMsCl7lbLSSjkn63QbnlomfDhk1WKLxLsuWzP9oKVfnKEGMy279P7tL03ZI+MosjQl939xPleuXM3mutqBhX1ZmdEnerjY+P95bKRyS5pGMmH3ZpbzAbS2PcVZCGdoyODtU7xkLR09Oz2mJ8vKKekpoeINdGM50Wpt/op8o3Lveprxm5z+1MWm5myyWdLVm/SXL3KNl+LxT39ZW6d7jrG2nwT1Qqlb25/4KSQgjRYzziMc78d2hF7rOePWkF/5GqtifGuLERKZ3Sz/+9g4VwhqQzTNZjkqL5kyW7/fQ0HT2tVPpODPH64eFd32xKrsgNBUAAQMtK0nS5QrKl3uPNTGn0pTmmNLvxpYdKVtcsNjOTSzOeWZYsTffWJpJHmvQrP/uuy2XBwuyvFScmKdV3JX1A0px+Kvdq9a9NtsVy2KnEpa8WDx36n5ne3qRumT1m5iPkuJuKTf2fmeTuLtlkapqUwpGV7UuOrOgqD5r5l71Q+OzGnRsr27QtVaPumxAeaJrN32GW5mITGjMdPXq0OJtDjh49miwttl1gZg+b5WCzu/lxQ9jP/ae7y6TUXONRmgjyI32l8pjk33Gzb5xVq33p22NjE5IaPcNRlqarFJKH2WxnqkjS1GvZygakla8QVkt24WyX4/2MKY/XrKxcfvYsD4nuflqwsGXmh2T4PY/zduQul1SN0oRZmEyliZ5S+R6T7zSzG136n+WrVn3z9Jtumtg2tc/aPK4UnVLSVy6f71EXK00vlGytTKvMbKrQJ1eedbLjFN2CSetktk7uD5HpCcH1yr6u0n+5/Io1o6Pf3S6xf3wO3NND8qRl9mS872Ph3v8y6Sy5zpLsl0MMT+/tKm+vmb91ZGTkG5qjPQ+RLwqAAICWZWYeZ3Nl+zhCU2dj+GS9qbu7zGzGJ/Y7duw50NfV9Q5Z8gGX/9zSyvr/fv6qnp6ez83l0tS+UumR7nq6T01FyBjND6RmLx3Yv//wjI8wq02tjWrMzLdZMEnt018rfeqkuVcKj7U0vmlXqfI/vaH7k1G6fnh4eL/yLgK5V30qZrP/DpnUsxzTpclcz7CzSVxabtJyuU53aaNkj5DrJbeH5EBvV+mTkl91rFb7yZ49e442Konp16JJ93ovqFjLFwymf8dxd6+zANgS3MxmfVLuafpjFUIzZ2CZpDa52u7zjQ7JznPX4ySlRw8emjxcKn2nz5KvxbT6lbYYh2/evftOLZBiYEdHx7KlSdKjEF7urmfKtPS+1dK5vG98asB7/7nMpG43K0v2tLu6yt/oS+wdSpLvsE9cNu6eeSVvo93nsRCmi9G/U5Bt6S2Vv1CQX3bLyEhFC+Q5uFjM6w91AADgZwZHR//VFa/LMWRXiPEVOcY7qf4zz1zhbq+RWWfmYGYxhvDaiy++eEcOqbUMlxfcfYmkR5nrPRb9292l7hdv6urqaXZumDNBUpvMOmT2Mpf9z5L29rdv2rjxfD31qezvjHq08gl8IqnN5StM9ltyf7OF5MZqsfi53nL5T3o3bnxQf39/5v1imyh0d3Y+ZFmx7R0Kyf9K9gJJy9R6zTpNUruZLvToX/Ja7aq+Uulhop6wGLWb2VNqri+fUyr9sbZsYVLZPMITFgCABSSG8EaZvp9TOHPXM0odpVkuh6zPseXLn2XBfsMyXhMPZlL0ryRJcsMcNIBomuklot0F03ujJdefWyo1bskuWpaZJYnsxWlIPtdz441/3t3dva7ZOQGN4tO1SpNdEGQfVEi+OH746N+f0939m319fbnsxzpXyuXy2X3l8qVJUvi8zF4kzXyv3mYLCk9xs0/3lMuX9vT01LXX8QLTykX03E3tUmJ9Ufbhnkrlz+bbc28xowAIAGhZVbNj0f22VrsM3sqGh4f3KUleau4zXvZ6MmZ2VqFgf9/X11f3pu8zce7GjR1yXWpmp2VZ6mRmivK9adBrBgcH9+eYYsuK7pJpc032qb5S6Z86OjqWNTsnzK0YoySdFWRvseg3nFMqtXTDDSArd5967ZM2mOmlMfoXVat9tntj95OandtM9HT1/HrB9RnJ3uXShvnWACN6lFylIHuXpf65crn8qGbn1CxTy2StbfXq1YtxBvbSIHuLqtUPaAvby80HFAABAC0rmUxSSXPehXa+27lz57cke2fWmXTS1B41Mm1RtfrsHFI74Rg1KzwxSJumCxlZYqUedV25XPlRTunNC9Mnj6td9pJlxeK7t7AkZ1FydwWzR0TXP/aWSo9vdj5oivlVScrB9OvfUsl+OwT/YG+5vLWno6er2XmdQOgrdT/fLF4ls0fMt8Lf/U3tV6xfT6J/uGdj+Y+bnU/TBJXGx8cbeqG0VU01p7GLe4e7X9vsXHBqFAABAK2O96o61II+KPev5VEENLP26HZRb2/vWTmk9gt6e3v7zPxvPeN9PfW72vdDW+HN27apZTrrzTWXXbJrqPI+0extUXJ3WQh9cr1neo8uLCJm1vodlxtkunnWermeY8X4jZ5S6Zlqob30yuXykr5S6e0yvcvMeuZ78e9e03/3PjO9ta97fszAbICl4+Pjs+o6v8CY5C/u6+r6vWYngpPjpAoAgAWoUqnsjR7e7O53ZY3l7grBzo/V6pOV88lUZ2fn0pDG18isI3Mw9ztc8S2LZenvSSQyXdTT1fU6ZgIuTj8tApq9ta+vr7fZ+WDOmEed1+wkmuk+RbWSyT7U21W6olwur2lmTpK0bt265Un097rsUndfuVCKf/dySUH6mpLkS83OpUm8nq7zC4mZne0WXvvgrq7Tmp0LTowCIAAAC1RXT9fXFezNZkpzCGdJSJ7b09nZl0OsnyoUCr8p6Vl5nAy5/ONDIyOfzJ7V/GdmS8zCi0aHhxfrbIxFb6pJjF2oavXPNm/ezL6Qi4TLOb/7maUye0Hi+mRf34bs3eXr1NXVddqK9iX/INlzNdXVeEGZvir4tbQQLh0cHJxobjZolunGZI88GsKTRJ2pZXHHAACwQG3btq02Wat9PLp+lHUp8PQSnwsUwrOU09LSzs7OpYnrcpfaMgcz/cSKE2/IIa0FYfr+OlvSi9ete8jyZueD5phqkmAvvOvAXY9TCy2FBOaSmT1GteL7ejp7HjzXY3d2di5ts/AmmT1PtvDOvc1M0fUNFZKLh4aG2LO5yewUX41PwCS3Z2/cuPHsuRgOs7fgXoQAAMDP7Nq1a4/kf+muA1mLgDFGBUsu27Rx4yPzyK0tFP5G0iNyCDVphcLzBgf3Lvalvz9naul28hsrl97zW83OBc3jZkFK39TZ2dnMZVlLNnV2bmji+FjEpmaY25NCEj/Ts7Hn/Lkat6+vr709hJdJ9kIzW3Dn3VOfKfwbE2n1mTt37tzV7HwWIzNTCEEhBEna6+5jx//SLnffLal67+2DmfLYJ/q+pmcBPrrdCr+aa2Dkhn1hAABY4IZGRr7QWyptlcKlkrJtUm1akVp4taRvSfUvLT6nXH5ojMq8QbuZSdHfPzg4+J0scRYqk9pS10XnbTjvv27effMdzc4HTTC1FPi8QqHw25Kua1ISSQxhjaTdzRkfi930rOgeM39f9/rupw7fNjzS8DGr1ScES14V5WEuejPPtJiTx5YbZiaXfzOVLt29e/dY5oA55NPMsd29zd3nLImpMeMBd3+3ZDdKksdwRwhpPP4RLne3GMMys7gsSqcHqculCyQ91sxy25fSzEK0+MRz16790i0HDhzKJShyQwEQAICFLxaX1t5SO1b8LUkPzRJournAb/eWy7+3s1L5TN0JRb3Sgm3I8oFzevbBtycV3yvNxenVjLm7fiTp2IluYKblkh54/2/nnUiMUSY98Vjh2LmaKtqi8VySm3RLdJ385MfkQVorWcnlyU+/2wCJ+0vVtAKgZGYnODFFzljqfQLuLpnOD23a2tfX97hG7lfXu7H3QVL6D246o8HvTi7poNx/7K4fWtCwS3t1/8eBWVExniO3s8z0CJd6VecFwemCV2Uyppft2rXr/7Ikn6Zp1WTHMtTvoty/pWDfjamPWmJ3yed2H8zobm42NnHs2NxeZDM7JvdvDVYqX6vn8C1bVNg/2LnqmLetVTE+WtLrzeysrIXA6FGSttRWr14jCoAthwIgAACLwM03776jt1S6zF3/ZmaZ9oRz96KkN/X39//HwMDA4dke39vVfZHMfzf7h3SvuvS20dHRoWxx8jE9A+Er5vHStmNHdx0I4YSfotfGtXZk+ZGCJBXSwhnRJstmyQXu8YIQwiPd/Ywc82pLpN/cvFk3bt+ual5xTyFKuu/JdXX6e3MqnOQ+aITpovRfHqtW/3nN5JqJA+HAKcdfs2ZNmJiYSNra2gqqVh8QY9zksj+UtNlkp7s8p8/r9qBzu7vPvWV4+JZ84i0s7p55q1RJhyXV1MQinMtm/Zqck4OaxYUYl4omBbkXZVYwM8l9rq7kPMqr6Ts2b9582fbt23N/TTzzzDNXKKSvM7NS3t1+TZJLky7dYbL/iJ5+trhkybaDBw8eW7t2bXVgYCDVCV5rN2/eXDh48GBoP9herC07fGZV+lVJTzHZo02+WrLCTLL1GA9I4c27du3636y/T5qmdyehUKn7uecezfTp1aef/t7t27enau7FwDkbe/pxtcbNzpVUVwFw2zbVpLE7Jd0pabBcLn8puN5u0h8o41ZxZtbl0mpJLA1vMRQAAQBoEG+xmRjPvuSSr19z5ZXvlvS6rJ9Szaxn4siRl0h662yOK5fLa0z+YsnOyDr7zz1+bsmKFZ+vO0gDuHs1ifHgwP79Jz0J36d90s92LLxb0k5JX5WkUqnUXZD+TrILJeWykba5fvuuu3o+IDV+k3Yzk0ffKbP3WNAxSZZKtxTc53QmgLtbR0fH3Tt27JjLYSXp2O7du+/ard0zKnju27fvvv/85vTXR7q7u0shxpdK9mwzW5dDIaF9MsbfkEQB8Di8UKhazPQ3PibTy5Sm20OSNO0cK3hsSiMG9/iHSQgzngGVuve62Zmm0Cl5r7ufK+k0SWdIWjk9y6xR6Zrkzzp44M4fSPpw3sFXLV/+R3L9cZ75TzXb8NSkHwbTv1hb20d37Nhx4L63ud9ryS+4T7FzQlPF6mFJ127atGlDnJx8qbueLql8sr+9uR+Jlrx6aGToo5l/KUmFQsHl2WYHm1naiELuPNBmbityihUrlUpF0v/rLZevk+upGeOZuT9c0oBaa4XGokcBEACAxmnY8qJ6XH755bFUKv1TQfY7Ztqc8eRkSXS9qKez81NDY2O3zvCYUHR/QpQ9PMvnwakCU9zj8vcPDAxM1h2oQbLuAzQyMjIs6aK+cvl3ousfTTovYz4yswcl4+PZ9n+cBQvas7oyfMV2zdmMw+MaHGn4Nl8nkrn4Pzw8PCLpL8rl8n8l7v9oZuWMz9k2U7hADSh4LATuPmJSre6/sHsMZjffumvXj/LMa74oLFnyg/sXpE7hF5aOdnd3/1Ih9Qvc/RFK1C/ZA4NpRWxAIdDM1rj7K88777xP33xzfvujdnZ2ni7Xa/KKJ/10dvlek39ME8W337p3MNeGVzt27Ngt6bXd3d3XBfdXy/1JZrb8OK83qQd731Aln+IfWlJMam2vTMPEI2XWmSlQjCVJiaZmRaNFLLhuRAAA3FchSepuVJGVu+Z86tGpjIyM3GaKL5N8KMt6N3dXMOuyQuENW7ZsmdEFxe6O7nOi7O+VtTjiOuzB/mpodPQ/MsVpcYOVypcspk916aYcwp0Zi8WuHOLMiEuhum5d21yNlytvrZm7lUrlhiTaRXINZnnOmlkweX+OqS0olUrlbpdnmokU/af7OC461Wo18+8+PDz8g1tHK1cM7hp5bk36HSk+2eVvkbS3Id1KzR5YPXbsTzs7O5fmFXdJofDXkjblFc/M5Gn8lMf0iTtHRl41mHPx776Gh4d/sLNSeUb0+BS5f/t+f/NjMl22s1J5daPGR2vYMbZjtyxckfU5Z+7r+/v7qTe1GO4QAMCCNhHjA5o1tpmONGvskxns7r7RpSuyxnF3k9vjRkdHH3aq226WitbmF5tZ5iKUy78SCoWPZ40zH+zctetH7vbnJst0Bd3dZUnSkVdeC9X0noHjzc7j/nbsGv5vV/xgpiAuyXTaQ8vlNflkBTROpVK5e+fIyNdWn3HG38RgT46udynnfUSnZ7i9qN2sN494PZ2d57jr95Tj9h8x+lvagl66c3R0e14xT2VodPQ/5IXnu/ungwWZmUz64M5y+f1zlQOazMN/ZjrcXVLoOXLkCPWmFsMdAgBY0KJ0etMG9xZ9n922rWbj41fK4/cyX+E1rbY0vaivr2/VyW53qLv7Yeb20sx7Ipnd7mntbxvZvbHVnF6b+G/J/yvrfRXdKQCewurVq9Ngfkves41yEE36T5f215+by1xth9M0twYzQKNt3769Ojw8/N3x6sRfW9QT5P6jPJ+fZmGDJclTy+XykqyxQpK8UFI5e1b3sjdPxtrrfzIyclt+MWdmcHTwxzX5S6LiP8v1/qUe36Bt21jKuUgUrLYnawx3X1mr1VruzXSxa80TEwAAcmJN6Dw6Hwzu3bvfzd7u8kzLidxdJnthbaL26BPdZvPmzcU0+t9JnnWzapfpHUNjYz/MGGd+Wb++GooMQzwAACAASURBVE1fzxomSBvzSGchW7JkiVsLzgCUpNCe7nP57qxxsu5RCTTDnj17jg7uqnzJ0trjXf7PU72FsnN3yfVSMytliVMul8+LsseaWQ7LwC11198vX73yzWNjY8eyx6vPyMjIbVYovFzF5LIfjo7e1aw8MPfMLPPGm2Z8/m5FFAABAFikdlYq10n6tLJ2aDMrFhK9eFNHx9rj/fjuO+54rqTHZBpCklxfvufw4Q9kiTMfbd++vWbRshd++Nw3I63WvfteR4/qTnPL1KzApURmmWc6Ac0yuHv3WCpdKvcPm1k+TaDMTg8xPktTDQvqkrj/bpDOyTrLfWp2o3+iUJt810033dT0bUQGBwcnFtOMe0zJ40KRt+oqmEWOOwUAgEWs4P4WmWbaxfe4pk547LdrxeLT7v+zcrl8ttz/QlKmhhAu3W7mr9u/f//hLHGA+apQKLgyFOunDyxakrAEGPNapVIZX7Jy+cvl8do8qvVTswDtyT09PXXNUt+8eXNRssdaCMuz5DHd4f5AkL9+x549s+moDOSq6smGrDHM7ND0+xZaCAVAAAAWsVtGRobN/e3KOAtweinw60ql0vr7fNsK7n9hCpmWnpqZzPSPKhYHssSZz8zyWe6G+SuE0C6p7tl7NvV1LMS4K7+sgOYYGBiYnHR/Y5T/Vx7xLNiDVav9Sj3H3rV3b7dLD8y8x618XBa23joy8pOMgYBMzHxLtuNNUhxavnw5y4BbDAVAAAAWucGRkQ/L43ty2Fh9Q9H1tnv/cU6p5w9c9lyX1z37L5jJPX5v9cHw/sW6DGnz5s2FaLEvcyD3HPamQrO4+9kuzzorw2ox8jjAgjA6OjrUZvZsk41ljeXuMrOn1HOsFYsPDGalLAVAM5O7fy81f1PdQYAcPKCn5xx5/NOsBW03u21gYIACYIuhAAgAAOS1wrvcfSBrEdDNntRbKj26v7+/LSo+z8zW1BvLzBTl+4L0zu13DR3MlNg8dvDgwaVyPT7z3lLuN+WUEpogcT8vyDbW/zgwuTwtSEdzTQxoopsrlYoHvTWXzsCux832kP7+/jaTHprD2Ifd7JpKpXJ35liLD8tMc/KQ3t6zJtP4QZllXwIs/VgSqxdaTKHZCQAA0EjmXujr62tvROz29nZPDhwopnHtcc88xnU4adF+Ar9gaM/QaE+p59Xy+Cll269vlcxePXHo0IfN7MIsNavp7ozXbejpvv7WkZEMKc1vsVr9PZM9JGucNEkWbRF1viuXy+Uo/VkwFeo+1TVJbod2jI3dlmdu+BmjENEUxyYmrltaKD7ZQvitTBdKzM44r6fnwTcPDc240/z4+Pgaky6of9B7PyX4rlAofDRLnMXKpeVdXV2n3f/7ZrakID1UOXS0PZEkhMNHJye3N7Nbcx76+vra48TEg4+k8V2SfiNrPHdPY9X+T7wmthwKgEAruPzyoEc9KujrX7/v92rNSwhYGNxd5vYc1Wq/1oj4E2ma+tJlv6R4eJmO9yHHbFMjxm2UaPGrifvbzMJfZTqJcj1aFn7Fs3/OuEnF5J3btm1btK+HPT09myyNb1fGVRtmJpd25JTWqceT4h/s23fsJFMObcuW+jtunsyhbbLtUk0L5MRj06ZNG9LJ6mtN+o0sz8up10P/sSSWZDVIGmNBUrJlyxxf+dkmbZt6vC/K2TZ79uw50Fcu/5OkRytDJ1+X2mruvyRpxgVAm5xc6aHQb5lebqwm9+sW6zYXmZgV3PXmooU3n/A2DXonMDOladyxPEkeJ2m4MaOcnLtPStKWLTP/vLV/f384duzY0hBCW7VaXWFmm7xW+30LyTPkvjJrTlPL2fUdtYvZrC2IAiDQJGdfeWU5FAodHuO64N4TR0fbVS67JFkIro997EDqPlRwH7M77tg1dtll8/rKEtA0wS6UdGFDYrskdymPpUctoFKpjPf29l6lWvpMM+vOUGxocylbp1H3o15IXj+0c+ecNixw96RV7s3uzu6HW+rvl7T+lDc+BY/xQCgU5+zDuLuf8bFy+Um90vj9f2ZmbdG9Z9ewLzez3ItRVrKkN61et3NsbDDv2DMaP6dCzKaOjrVpsXh+nKy+0qQLszcY0KRb+EHWIDgBs7ag5Bm9pdIFYxWb03MsL3kom/2oUCh8cbEWkUKMP0wt3GTSwzJMkm3zqHNnc0w0W58E64wxQ3FeXouJ3VB3ADSVNXCG4SkEM+/vLZefPlZRWTNbcuLSkXZz6/VYO7Mge6DJuqZ+kM+vYWZy8y8tW7bsrlwCIlcUAIE5dvZVVz06SA+PUx/mz7dly1Z5mv7iK3YIChMTcvf/iWvXfuvsj33sq2mttn3/JZfsbUbewHyVw0nzorJz587Bvo2lf/KgN0ha1owcpq8e/+vQ0NCnmjD8PmWaL2BeLBQyFX/6urr6pfBEN7/UzNZnfQhP/z2/lSTJLxTjGmHqOWcPChY+faLbJFOJNWT8kCSK0X8kqSkFQHdP+vr6ViVJMqt7bnx8fG3Ri8tST09Pgs6Nilske6qktpxex2o1xa/mEQjH1WbB/tSasO1DCEHy+KlarfZ1SYuyADgZwp7E7fMK9jDFuq8rFNzjebM5ICgpZ26WIO0dHh5uWHG+p6fnwV7zsxsVX5ISl8UQz0zMijLbvXTlym/ddNNNRxo5ZktwWa1YaFZjpaJZeIGZvUCzeAy67n37Nbk898/J7rrH5N8YGBiYzDUwckEBEJgjZ3/kI49WkrzCzB6j9vYVIU3laSo/epK9uM2kQuERliSPsImJl1iS/Gj91Vd/6PQlSz468LSn8aIKLHBm1pTlXO2rVvzT+KEjvyTTszTHDcOmOyHetCTo1WrCEs5CCLemaYyqexmZL59w735Ad3d7mqYnjGFmnsYYYrHYbWm6Um4bzbwc3frddK6ZleT5fDA3mdIkfvaWW26Z05OxWP9JeDYem/bcmb6/XqRq7Y9q1dqsKkEF2WlutSXBtEZmq6WgvB4DU7lp+8joyPdyCYbjcs9rDs3sTD/QJkIIi/aKV6VSGT+n1PNtn3rhqet9y6Y6ifTO9Pb9/f1t40eOPDhr0TeYvpApwClYmv6Fmf1RI8dwUwgW2i0EpTH95qFDh54taUEXAN1dMi1P07RX0s5m5dBKF7pDCPI0fnQ81r7b7FxwfBQAgQY78/rrVxSOHftLD+GikCQdnqby8RlOwnCX12pSrSaF0GYh/LLc33bn0aO/s+7qq1+476KLbm9s9gCaxl1mOm/Lli1fmOs98AYGBiY3btz42jaFX5PZjE+G8uOXD1RGmjLbOcZY//5RUyf/55vs2kn3qkI4+VlhkkhpXCGzgknLXLb83kPy/EAfPR4sWvhfzWLvt4WzsH3umYU+SX31Ht+oEzpX/Ofcg6JlmGYzB2hhClH7UvM7LYS19T6HzLT03I0bO27ZtWvPqW575MiRkLifnvXV0qVvZApwygFsiUxLGzqGpl67YowyKRaLJ74AtsAULcYVzU6iFZiZYox3p1Gfme9NURYyCoBAA/Vdc82qI+PjV0l6okkFr1brDxajPEYphJVWLD4lpOma9ddd9+Lbnv70n+SWMICW4u7LDx061JQ6zK5du/b0lEqvMunjkhrSRfn+phpV+LuPVatfmovxGsGk5ZK6Zz4jxO/939S/cj6Fn5pRGT8Rk8KsNigPIfxfjD5uTVoGPp+10myMn7HtqfTvzc4CDRTV5+ZLJC3abt9pe7jLa/FOk9bWG8OlRCHM6D2vvb29WBuf6Kl3LGlq9mZMQ6O3K5i76dhTF8LK6XjxF7ryLlDeiL1s57GvVcbK/y1Vmp0HTmBOl/UAi0nHFVesPVyrfUzuT5FUyLAfyc+LUV6ryZJkiyYmtp790Y8+MJ/AAFpQUysJQyMjn3H5x+diLDOTR78xkT64Z8+ek+yN0PqmesP4jL4anov7ZIjhY4ODg/fM8riqFkgXXSgNiu8aHR2lI+NC5a5oWl2sVhf15I7VR4/eJtcpZ+6dlHsSpSUzuWm1Wg2S1mR6LTdTGtLd9QdoQe6Ju1NnWERMJo9xIJjeIM3tqhXMDk9MoAE6rrhimbe3f9AKhSc1ahGV12pSkjzckuTKDddc09mQQQAsdrEY41/JfdAavyB0wlxv2lGp3NzogRYLM5NM/xmWtX2/2bmgOaaaQ+hzx9IVXxQFXeCkpgt5q1JpLi+uHwohMIMM85rLD5r8726tVP6v2bng5CgAAo3Q1vbbVig8Qe6N3ZElTaUkeXh0/6vGDQJgMbtl167bTOEvXWrYfi7Ty1S/mSxr/1qjxlhszExyv8Ni/PAtt9xyqNn5YO5NzaqNO9Ogy8fGBu5sdj7AvGDmNodLZt391jRNaeyHeWn64vBRyd8xODr6iWbng1OjAAjkrPPKK8/xEN4is6W5Lfs9mTSVxXjxhq1bX9T4wQAsQq625AZ5fFcIjfnY4O6VGGp/TqEqP+5+1E1/OTg6+q/NzgVzb6oArAMhiRdXcpiR4VNbldEXBsiZ191xHmiuqRnmccDlT9s5MvLGZueDmaEACOSo//rr29IkeZq1t5/rtbnb/sCTpD2aveDM973v7DkbFMCiMTg4ODGRph+IMQ40YCnwpMnfOzy8+wd5B17EPMg/kkpXNTsRNIe73yVPX7ljaPS/84gXUzvs7kfnYCsAYLFhaT7mnak9//zaJIRnDI2M0GBqHqEACOTojiNHOuT+8kzdfuvhLpn1Fpcv/925HRjAYjE2NrbbXR+O0Y/kGdelr6pYfF+eMRc3r5npg0vHx19bqVTGm50N5p5LIxbs4sHR0X9RTsWFtoLuNrNZNZIBcGomrW9ra1vUzVswr0xK/hMFvaD96OE/vWV4+KZmJ4TZoQAI5MXdQpJcYMXiWXOy9Pe+YpS1ta3yEP5A11/PUgIADTE0Wnm3mT5rZrkUFVw6opj+7eDg4EQe8RYzM5PJDpjZq9qXL3/FTfv25VqoResys3v3YToo1w1KwoWDw8OflZTmOIYbM5XQ4u5oa1slaVWmIK7J1OyuWRyRaVqsma1L05RzcrQkn3ofOST5mElfjB6fd3h8/PzB4eEPD+zff7jZ+WH2uNoA5KTvC19oOxTj00Ka2+ft2YlRcu9dNz7etU8abk4SQOtp9JK1k8X3GBfaGbMn7W1/lU5M/rKkc7MEmipY+RsGL7jge9q1K6f0Fp+pBioeJf/fRP7aWyojNFJZBH7udcd9j8t+bCF+aHB49PrmZQU0V7Hop8WqnV7v8WYmlx9tdx+Zye1DCB7TOJn1U4aZrZa0L2OYRa1Z2xO4+1J3r2vyRZKEGOdux6g62fdj0HsmwuS2PTv38GFtAaAACORk/Oabg51xxiMa2vX3JDxNJfeO4L5RFACBn3L3H0u6vTHRreYeD5jsuJX/KD3GpPWNGbs5duzYMdRXKr3dZe+T1F5PDJPJ3b+Wmq7QJz7RpKsm89e9JzruLndtN9eXvZB84JadO/lwvgiYdMTld8ptVO63BsVPDo6Ofq7ZeWFeWxCbO4aJwumu2pkKmX6dGKQZbZ+w+ujR2sFC24iCPcLr/Pzv7lL0zZJ21BUAkuywuw9JOqC5X+F4l9zrKt6urBXuOKg4Yap/evV9ZoD/InfFDOelU82k/FB0fWLPzj1sKbJAUAAEchJXr+4yaX2zCoCKUdbevjKtVjuakwDQesxMbnrrmomJ3DuhVtPUjq5cWTvZ8tWertLnZLbg9uYcHBn5SG+p+08l/5V6jrdgkvt7KpXK3XnntlD9fNHPd8j0BZd/xYP97/BwpSVnjjRrRkYwU83jgtwOY/pEccxDeL6kHw4NDR9sdk74mamZzXO/VjpIiu5Lo3tdT7okhMPR/XaTzprPs9ZTxQ6FsKzeYpwkmevoT0ZGZvSaenDZstRrtb2ZZwC690tNeegsCG76z0Kt9qKj0p3rYpyzN55qmtqBJPE9e/bUtY3J9qGhg32l8rimCm11pRBd14fonz3eD6PFmsn+StLD6gnu7jKzRxU8PlfS++uJgdZDARDISWq2IUy/UjYtiUJBlqZ1zcgBFiqTjm3fs+doQ4LvO/k5gskW6vtskJSp8OAS+/7dz0/fPO7/NuJ+c5RuNY/fjR7+R4lGJyYmdu1p1OM6o+llybe7+1dNXpPZcJTunKvxQ1pLCkFN7Sp9vI8C7n5U0i5zP9OtvmWKPhW7SzGu3VmpUPxrIcFMqftHE9ONsc7Z0RmYBbuzfc2au7V796wP9licVKgdknRW/qnNjXXr1i2P5o8Mv/ACOnPuLpMPSZrRZt6Dg4PVnq7ykGWfc/bIzBFObkHM8DwRc929Y2xstySNNTuZ2cty30Rz/+7gaOWEWz/0dnevUPQPSFpW1wjuwWWv6iuVvjM4MvK9ehNF61ioJybA3AvZ1hvkwn16LQGwgLgsy8cjd2dz7fyZlO3vuoDvlwm5D8jsHvcZL0UyMz8cpZs19Yc9ZB52pF7bZ8XiSIzxkLtPnLF27ZHt27fPcZv5evng0mPhlX7m8iOSJgcGBuZ6qfccd+OaYmYy9097IfnrWq32c41YkmqSxvY4mch+z1wfyrBkcKlLb9nU2XnjvSe9aAFm8ph+4daR0U+qOY0WXXU+7t3dXBkXzjbZihUr1iuNj80UxK3m7rPZRiea+U2mIM80ec9+edOmTR07duxoyPPZg36sqG/MKiOpW6aNjcgnb76YG5uanfRiw5Jly64bP3T4ZTKra8XG9EWnklwv6e/vv3RgYIDGH/McBUAgJ+aeZrjomF8eOXb9A5otCUmMqrHvCOYFk+Tu+yX/kzVr1940m2NXrlzp27Ztu/cM8rgn8pVKJXuScycGO3r4poHhRdeN2E2Hli1bVrnpppuO+7tv2rTpM+lk9U9MOr/ufZ+kc9MkeY2kl4tlgy3DzKKm7g8+i80tU6324BCSB8eYofZvGpfpW7M6xIu3R9Wqkor1D6xl6eTkEyVdkSHGCQ1VKm/cvHnzm2d6+/HxcRs/cuQNcr2qEflg7gwMDEz2dXe/zaNfI6mtnhjTC9wuPnr06Gck/Vu+GWKuUQAE8mLW/GUTUzMAz2x2GkBeJpKJowXph5I9uGn7awKzYh6TUJs/M/UaJaw5smLF6dq3b9EVAOVuExMTJ5yRsmPHjjt7SqV/NAsflvvS+gcKF2/auPH6Hbt2fbP+GMD8Vy6XV5v0Iq9zD8SfMh1bIvv2rI5p00FN6v8s2PkZFuG0yfW0/v7+KwcGBibrDXIS6fbt22dTlLa+cjnyqWthGBwe/lRvqfw5M/uDDDPPQ3B/a39n538PjI3N2ZYeyN/inS4L5KTr2mtPW3/VVb8fQrhMlsMuIFlUq5L78zuuvvrl66+9ttTUXICcLOqlHcC85ctijPXtObTwxeXuX1D0z4VQ/8ubyVekIXndueeeuzLH3IB5J1HtAnddmHkXHNeOgUpl72wOaT948G4FfT/bwJLkDzl26NjDs8cBfkFqpvf6DLtbn5g9YKJQeFk+KaFZOKkCMlh/5ZV/UEvTz8nsU0qSRzQ7H09TKUn6PUnerTT9/Nlbt76q44or1jY7LwDAouNmxgSSE/jh6OhdUfEKj3643t5h03szPaY2Pv4X+WYHzB+lUmm9vPCPecRy82tne8zA/v2HzewrmTsBK5welL6iv7+/rmWawMnUpO8o+tUh43ZV7vqz3lLpMTmlhSagAAjUofPKKx+8/uqrr1Gh8H4VCr8qSV6rNTutKWkqpaksSR5oZn/n7e2f6bj66t9rdloAAOBnJmP8VnSf1X5jx9HmsovO29CzKZekgPnFirK/lnRuDrGOFdraPlvXkTHujDEeqLeYL0kuD2524bHDh/+o7iDACVQqlXEz3+rue7I8Ts1shVyvfchDHrI8x/QwhygAArNw+nves2r9VVe9Lg3hy3J/pszW+dSy22an9vPcpwqSISxRofBrLl3VcfXV/7z+2mtLyro/CgAAyGxsbOxYUPyQS/vqbXXu7krMuqoFv6ivr++k3SCBBcZ6SqUXyf3ZmQOZSaZ/KxaL++s5ftK94lNd3LPmsUpmL3/AA0rrs8YC7q9zZOTG6PGKTIVqd5PZbxy+554X5Jga5hAFQGAGznzf+1Z0bN36x0vWrPmOzF4vs7MlTc22a2Ux3pvjaS4932u17559zTV/ftaHPrSu2akBWNwSaU2zcwCabXB09FNy/7as/k6+0d1M/iKvVn9VqrOS2HiFKJ3W7CSwYNg5XV0vM9kb3WxFDvGqcr+i3gYco6Ojd8l0o47TvX023F1B9vDJo3quaNaJnG2Tap6mN8QY92acBdhubs/r6enpyi87zBUKgMDJXH55Yd3VVz8iWbnyvSoUPu5mD5B70nIz/k5lqjuwmXSWmb0taW///Nkf/egfla+8khNwAHPPXVHq3rJlCyc4WOxi4vGf3P1gpihmp0v2qq6urlZ9X283955mJ4H5r7Ozc2lfV9ezooU3mFnmonIIQdHjDanZ97LEiWY3uPtolsKKND3DSvbqvlLp/2UKBBzH8O7dP5DpS+5e9ywWd5eZHqQYn7FZm4t55ofGowAInMDGrVt7O3p6XmfuXw7F4sWeplMz6ua7qUYhv2xJ8onJJHnn+q1bNzc7JQCLj6n+GU/AQrJjdPSrZvpKlhhTJ2T2uILZ7+eVV+5oCoOM+jZu7F0SCn/rsislrcrc9VeS3I+Y2UcqlcrdWcJUKpWvS3l0A5YkrXTZP/R1dj4qp3itzZ2axBwqmL3LpNGs08VD1Ivv7rqbztXzDE824H7OuOqqDR1bt76jFsK/q63t78xslU/WtSKgddVqkpnU1vZchfD59Vu3XtNx1VUPa3ZaAAAsRkl7+ysk1bX/2L3cXSZ7Z19XV39OaQEzliRJw66Sd3V1ndZTLr/Ck+TfFezVMkvyiGtmqnl8/7HJyW/kES/x+H6P8UBO6/DPjEnhX3pLpQXd5btSqVRDCLdnnTmJmbtlePgml33czeo+wXV3KdhGs/SN/z979x4eV1XuD/z7rrX3zCTpjdKSZHpLwq1YAbVeUUEQREFUDsccpG1uBSqgCAh6PF6IKCKen3JQuQTaJDNpKSdeuAmIcgQPIsqhXtAihTQ32lx6v+Uys/da7++PSaBggUwyOzNJ3s/z5AE0e613ZvbOzLz7Xes9avZRMzIZnwiWJACFGMZMxU1N57lE97BSXyTHOZYTidxr8JEpzOBEAlDqCAqFljHR3cWx2PXRurr8bIcmhBBCTCWbNm3qAig+2mYgB5nFpK7LRExCpCOZTM7N9JjRY46Zc+Si0q+6pH4BxvUEOjYjVX9IJf+YuQtKre3q6urPxJjRzs7Hoeh3mfrmoIiKCbi2bGHJd8rKymZmaNiRYCIar43OjWXTO5YBiJDjm7IHalSnWwj2Fmb0jGliZoDoFJ6W/Dfk7v6z4jVk7x0hmGleff0JprHxK+Q4Z0KpWbAW7HnZjmx8GAM2BuQ4x8DaazgSOTPa2HhdcSLx8IZVq6bIkyCEECIAk/QOWjA8NreGSFUDmD3GoT52ZEnJ+Zvb2+/ORFyZMiGW/RPxWKKcEI8xIC7RIgDPjfJwGv458sgjo+z7JxPTJ5H03gVwMRGFwYxMJf8AgK31GdTU1ta2MVNjPg74ZUpdT8aeBmDMVVGpx0sFStHVbPiDJSUln29vb/8rgj3P1JELF76dLZ8a4ByvNtbtAZhPPnLRojhnv7iJFFELHOc7LS0ticAnA0IgPnw0x/6jo6P7yJKSW8C4AWN43lJdgdXXFi5c+D+dnZ2tox1HjB9JAIqpq7ZWlc6fvyC5bt0q6zgXE9FsZqZJsc/fKHBqWbALoqUgau7Oy3uiqL7+C4d3drZsrK2dZGughRgnRP4U/j4opjAGNDMftnjevFF9OcmkA0Q8c+bMA6Pt8DleOjs7249cWFpLCjenGgGMWh5bXHVkYeFvNvf2bstYgGNDYJo+0vPBcgGRHgiN8XlAQmvb0dHRPeIDmF8AaPSVbEQzxvucP0DEjuOEQr5/0LLYfLjoH9i4Zcuu8YqDoGeP5LEf/Np6rns4MS8h5vkMvJsYx5GxCwEKgxAaXoWTycRfKlbAKvqN2rfvO0Bmq8daW1ufOXLhohiIPp+pMZnZBfABh/G7IxctuhWO86NEIrFjy5YtA5kYf8mSJSFv9+4ZyVDo/ZrpIgJOYXBBJsYeJyUALcqBEjSyFk/37d//PQDBJwCVImts0WiP39fXd+vM/IJqBhaPMZSFLqgWQBXG2AlbBE8SgGJKmtvQUOQ4zicGrb0azEcDmDBLfckZumyZwdZmNu7hD1pAGFqfTlo/uXvRopuPaGxs2lZVtTlzEwkxrrL4mdD+A6Czsze/EOMvtRcdomS5yXfcAeZsVmUwhYA9if7+bwH4VfbiGBFrNe5XlqsJePtY3t2JsBSRyNcBXI7cuAtRYIGvsuNeMqLzgZIOoI+hMe715jLvBDBn5EfQvtHOxakbyN/0HfcKZmRkj7qRCBEMMY60jjt9+H9T5CNhnPsAfGq84mDYb3va/fIb/hKBgWQY0EcTkdIMgAmMoTdqynyy75CxEl5Q1l7VsmvXqF/vN+Q634ZnPkqKjs5o1SJQANA15Pk1Idf979LS0nuVp9oKvAPdz/b29qUzVllZ2UxjzGwXKBo80P9xckNnO6ATGWMqgs2mHMj/ZcWoH/f27dv7ZpQU3EighjGfp0p98qiSkjNa2tsfGdtAImiSABRTDc1vajrFMF8D4CxoneqKG8hMlNHkHDkOoBQ4mfwHiH4P5qNAdDK5LgWyXNkYgGgW8vKudRKJcwsbGm7U4fCvui64YEfmJxMiOMQqitTyhnG/K0lE/RPk3oIQmRYCcAwDWf5aRiBgL4BZaR2UJW1tbZ1HLVq0GlC3jCVvR0SKLT559KJFt77Y0fGPDIY4WgqEBQwsSOfZzUDyZNy2MhmKdBEDi8bzDFJDcx/8XKWuO/LHLwoAQMk4v7ZpGwpvJ4iuPpDmIgAAIABJREFUbunszNjS39favHnzttLS0qu1xToA0zI9PhMdrhiXArgU2jzf5+T96qhFZU+zsTuheZ8h6g8z7x2uoPWtU0DaTFdWOVbzbAALifkEgJYy8LaXv7LIB5aphhMF/v2hA85fFdGJY7ommWcwcO0xxxyz4YUXXpDvijlMEoBiyiiKxT6miKqNtWdRKFQQZGdfCofBicRuABEQ5Y3qDZUIUAqkUzeR2fOehjHrrTH399bUtC5ct+4wz/POYs+7mFz3ZDYGGV++PNwoxHFOUMasg+8/FY3F1ndVVNwCIinxFrmPAcDOR5a+0Kc+fE/Vm9JC5AZKLfEb8RuxVSqhsvc9mOEmfmK9yCpFdMJov5AxM0jRAgtcXlZW9u+tra17MxynyBGSshmZoaYfHQBfsrmt/eGg52tra3voyEWl1xHR9UNLeDNq+G8DES0mYDGpoXOBcUABBwxoN4Za65K20wGaYRWHFCiM1HMBNfTPbCRjRW7YsnHL7pKSki8rRjMBM8ZWeU7vNAnvywAmdefqiS7bG2UKEbh5a9fOL25svImAO+A4n4ZSwSX/hpJ1Jpm8A8DDIBrdG37qVlw/jPkzJxK3szH/orVe3l1R8V+9NTWtANC5bNnu7qqqdZaoynreN8jabrgZ/3yR4g/dRHac9zHRDcVNTfH5sdgJwUwmRKZJsloIMTIbNmwwYH4xmzG0tPRsB2M9M4+pM2nqC776DHz/g5mKTYiJKJX8Q6e1dPnmjo7Ak39D/Fn76A62vG4oDxeI4QSeHS4CIJqmiIpAdByIFoNoMRHNAzAdQNgO/a4k/oJBNOH2wONwOPx7Jr53rOdpKtHNy49csOCtGYpNBEASgGLyqq1V0Vjsc9aYX0Pry6H1fPa8zFfJAamEHQA25g+G+cwIUS2IouQ4TtrVf6mxdiugUgPn+H1913QvX37PlmXLDvmFpLeiou3wvLwbjdZnku83AvChAri0mVOdkYkKACwzRA8Vx+PfWXLLLRlf2iCEEEJkCSuitPbSCkLIeHcC9NyYEwfMMwn62vnz58/LTGRCTCyUuqm+k0GXtr3U9sB4zr1hd+teHQl9Dcx/DTIJ+FrDyb2Df8S4OXL69OnjtgdoJmzatGk/gPWWeXCsYxFREZRTsXTp0vwMhCYCIAlAMemUNDRE5sdi746Wld0Px/k+lFoMZhXIXn+pRJsl5q0EfImJTt9WVfUr35i3AHgXj3ZO5oe3Vlb+bEtl5dbtl1124M1+fWN5ebJ3+fK/5e/Z81kodT6Y/wqtk4EkAocbj6TuJn5p9/Tpz0SbmqoPq6ubmfnJhBBCiPHFObBu//mtW3eCER9rFaBlBim8M+y6l3zoQx+SrX+mEAsbRg6cy9nGll9kwoWtHa0PIQsrpl944YWtlu3nGNg03nOLrDjcWjvhrrtIX9/vAPyeiMZ0jQw1Abtk944dp2YoNJFhkgAUk8oRjY1HDmr9PQv8joGz2fdDyHSnXCC1N5/jgJTawUS3kdbv7aqs/M/eioq+wni8wADnUShUMKpqQ+Z9ZMz3MYoPKS2XX57oXrHiZ3TYYSfB92vJ2hYQvbw0OaNSz6tm4Fhmro/k5d03LxZ7H+rqAlqHLIQQQkwdA35iDQH/N9ZxmBmwfPWWtjbZumOKSHXVVYctWbKkINuxZEOq2o58YvyaYM/d3N5+L7K4XWJrZ+fviG01E16YcJkhMSVs3L79AAg/Yra7xjwYYZoi9YWSkpKiDIQmMkwSgGJSiNbXLyhuaPisVuoh5TifZ8ANqpMVOQ6IOcm+/4hNJC7pqaj43Nbly7cM//9K68Xkuh97ed+8dMYOhQCiNV01NX8aS4xd55zT311VdQMTfQLAGli7fWjssQx7aMypH61PscAjRXl5X4k2NCzO/ERCCCHE1NHV1dVvtfp/ADKxcXEYRNdKFaCY7IgIlrkbsDftyTtwXpDdftPR0tHxFFlbw+Anx3M5sBAjtbm9/T4Af8xEFSCAMzTTiowEJjJKEoBiQpvf3JxXHI9/FuHwgxQK3QaljmHPC2YypQDHARvza8v8qe68vLN7amp+evCvlDQ0RMjzysl1S9Jd/ktKAb6/mXz/pkyF3F1R8Y/uiooLte+fg2SyAcyWgmwUQjRdhcPfZK0fLm5q+sHchoajg5lMCCGEmPxaW1sfJEJGmhYw4xNbW9uvysRYQuSaV5JqfBuxPWdzR8eXdmzasT+rQb3G5s7OJ8l1z2Xw7eBJ3cCZmFmynBMPs7XXMmPM100qCchfLSkpeW8G4hIZJAlAMWEV1tefbgYH7wPzjVDqePZ9BLLPHwAKhwFrO7TnrYLWF/VUVj6M8vJ/msxX6nAGqjiRSH+SUAjwvNu7pk3rykTMB9tSU/NHx3G+aJnPtb7/R3LdwKoBeXAQpHUJiK50lPpJUWPjFzM/kRBCCDElMBH9IFODWfCq0tJSWQosJhUCwGx/D6ZKOM6/b+7s3JDtmF5PS0vLdnKcLyvGpQz0T7ZqQCICiBIhF2NuKCHGX+tLLz0D5ruQmSXzMx2L6yB7keYUSQCKCacwHi8tbmy8SWndRFqfAaVmcDITq2MOIdVEYxCJRAP5/plbqqru6F62rOOQv8usDNE5FAodkfbef0qBE4keInr0UInFTOhctmx3b1XV/a7r/otNJC6DtbsCSQICYN8HrAU5zomk9beKGxvvidbXvyOQyYQQQohJzGN+GkR3ZCJRQEqVastXZCAsIXICA39ltpVJaz+9ubMt3tLSsi/bMb2ZlpaWfS++1F6n2X4KjJxNVo6Cx4yfEfjTRmtpejJBadj/BLA3E2Mx4YOlpaXLMjGWyAxJAIoJ47C6upnF8fiVivkxaP15KFU0nGjKKKJXEn/GPA5rPxKy9tKulSvf8I1s/k03hcF83mg6/1JqaXEsr7DwH6OMesRe+sxnuno6Om631r4LQBxEfVAq8xWBzKlEIHMeiD7FjvN4NBb7bnT9+gWorZW/PUKInEQZ+tArRKa0t7cP+mxvZ+axJzaYiUHnHLWwdHkGQhNiXA19UvUA7APwMAjnWsKHNnd2Nr300ksZX0ETMH6xs/PXOhI6lcBfBfNWAHYiVQQORWoA7CHgLmZ72qDxVrR0dPyppaVlFMuhJoW0vuNkoOt8xk+YFzo72wm0hjIwNBFFlOWvlJWVLcxAaCIDZCNgkfMK4/ECl/lkS3QVE50OIPNJvyGkNdhaH9Y+z0rd6mzf3rjlqqsGRnKsmTNnCZhPSzs2rWGTyT5ynAdbzjprfN4sa2ttL9AKoDLa0HAPO87VIHo7aZ3PxmS2a/LwWMzTWakvUzJZUVha+g2zZs1DO1aunGgf1oQQk9yA728KayeYNxkhRmnOnDmb9uzYUUekruExvEczACLMYfClxx577H2bNm3KqT3ShBh2cCKMmQdB2M5M25j5AUX8QEtHx5ga5uWKoWvwO2VlZT8lY65h0OkASogIY7nWgzL8ujDzXgY6WNGjILp9c2vri6Me01pHORp8iOQnM1sw5+Z7cqpZxiAd3KiJyJJS6bxwPjOb0bzYzKyIkH7XyTdn2ajbWfv/okAzMZblwMwgoIisvRTAV8Y0lsgISQCKnDZvzZoTLXO1Zb6UtXaD2uMPSoG0BozZzkSNWqkfHtzZdySIuZJT79ZpTU1aA9Y+M9jf/2xaB2ZIV3X1vfN/8INH+PDDL7HWVkDrE0GE0XQxflPWgpUqVkrdqZR6ojAer52+Z8+TLZdfPlXvEooAEQACgWGzWXGqDnn/dAR3+Ic+/E+oatmR3ismADaHVyEQsx5NVTQBYLBOfd6d8N7wMUyIBzj8GjKH07qWmGm0lQ+pcyDz5/aGDRv6j55Xcpd1+LNENH2s4xHR+8xgsnzJkiVNGzdufNN9VDhVOajV0APMqCArnphD6f069KH/aOeANJ6nVJKGR9z1jcEEQI/rQz/E4xlOelnmfoB3gmkbiDcz48/Q6tHW1tZnxjPE8dTa2voCgItKSkoWa8YXGPweAG9VpFwGZy0ZOJzwIwCWeS+zfYmBF0H0QGtBwTqM4O/Hm2GgzTL/Av+U51ODYG4DIYEcfNshgmFLW4jsTgzHx4wZM2ePqHgEACyogdjMI6K0v+QaY8Ok8FS6x43E5gs3tx7VsOg8zfZoO4rYDkZEDqzdsXTpUmfDhg0BdesUIyUJQJGTitetW4Rk8lyr1Cpy3cWBNvhwXbDnWWvtQ8radT3V1XenO0ZJQ0MkCZyJdN+ciABjkgCe2L1qVdaWnQ1VOf6gaO3aXypjrgTR2QiFitnzMlsNCKSqN60FhUIfVJ63bmDGjIb5sdjdWyors5IAFbnNWktaqXylVFofftkyGLwXzJqJ+gMM8c0MMA7RTY3ZAHjDClgGKybav3PnTo3UkqecQowC0kN5jtQXtkFO3QV/07+DllkDubtBOAN7AITTP5AJhL3amCDuyI83JqBAqUPnsqwxB4aqH3KXtUlStB3Abkq9piPCQJKZ+xhIv+oklWjsdxwn48/Ni1vbny0rKVlN4I8O/Tkc9RxEIAZO7+/v/wWA3jf7faO1Id/uZYsDnMkUIDOBeRCkeoCM3/AgYmxP5wBFtJ/BuVcV+fLzRNsxsudfgfFiJBIZ0TnsKN8YVnsZfIDH6bom5h0MDAAggPuYaBdZ2wtgDxG1sFItrjH/2NTe0TYe8eSK9vb25wFcUlZWdrTy7b9Y2PcCeBsBJXil+i6w+V9J+KWSscy8DcBGBm8mqD8aRU+3tbVl9DN7a2fnowAezeSYWdVx6O3iD6Wto+3HAUYyerWwLej4M4A/Z2zMzs6MDSVGTxKAIrc0N4eK+vsvhzErKRRazADYC+h7r1Kp5F8icY8G7nSsfay9unpUX0gHtT6HmKPpHkdagz1vM1l7x2jmzbSe5cufA3DR/FjsBPa88wFczY7jBlENyMkkoFQRh0JfsZ63oqix8T7tON9Nt/JSTG5z5849sHfHjm9atquRxj0AAwwSqz2GrVIh1Y3RfJHPAG1MYxLOo6nv2q8g8pkdZ9sbHetYqzxgoL29PeeSfwAsiK9gw3MAwJI1xLzXWj2iWLW22rG24/HHHw+orHv0tmzZkihbsOAstk7a1QYMEBwkksa0BhHbeDLAI5rwMTb/XEVEIDaWtr/2vM4lDCZHw9PMu33H8QcGBnaO9FAnFPq1TSZPtz6l/XdDO6yU5W0bN24M4saDVY5T6/v+D0EAjSFRw8wUYqsi+dN3j2hiaztJ0wqd5DxL6T8vrxsHQI7mpNW0M9OVs8xMju+l9QHGavoPm+T/zLVze/h58gm7R/K6h6xVCaKBDRs2jKgSKalUV4hoRdJDZDweO4Mp7NKeJDDIzESkBph5b3tHR87eGBpvrakltTcCoGNKSo71mcuI+SQiOh7gdymli1+VCGQecWb+tfsMDhf2MnMPwH+zjBYQb2Km51xN2ygUapXtAoSYHHKulFakL9rYWM9EVUjv9UwScGVXZeWtAYWVtuLGxpNBdD2IlpLWeRzEEtRhWgO+/yITXa9c98GuCy7YMZbhovH4PazUJ2FMuteUBbCmu7Ly4rHMH4SShobIINGHFfA1JnoviDJfDTgstQyawbwR1q45tqTkx4+feupkqKARQgghhBBizI466qgwgBnW2lkO82EGWEzMR1rmMgKVMZCvAGJgEYBZBx06wMALBFhObU2yFeAuhtpHCpuIuVcRtftEA8y8Nz//QN/GjdsPZOlhCiECJBWAIrtqa53i+fPnwXW/DaJPgGjGy91jM40IQ0msA2zMTb7Wt+1YsaIHY1zKUnTXXUs4mTwBKs1dY4gAa/dYouaxzB+UoWrIB2evXftE2NoLCPgGA0dAKZ3xJizGpG5HKvVWcpzvvtDZec68hoavusBfRluVKYQQQgghxGQx1Fl3+9APAPzf0qVLnd7eXicSibhsLVkAoUTC8SIRPXycHtDWj/je8BeeyP79Zm84bCIR17a0tHjI0ioJIcT4kwSgyJrCePwIBayEtVdDqdlgDqa7LxHIccC+vw/WPkVaf6t7+fInMza8758BpQpHFTtRy3FtbY+/6eY7WbRr+fJ9AG5fsH79/cbzroLW5zPRvIy/Xsyp5QvWhkF0GpT6bRJYN7eh4Ybt1dWj7iwmhBBCCCHEJMRDTRU8pPZTFEKINyQJQDHu5qxZM91x3Q8q4Epy3dOt5wWT+MPLDT7Avv9/DNzaU1nZmPFJmN9PoVABJ9NsgpVqaX/f47W1E2Kp60uf+UwXgKuL4/G7mfk6IjqNXDccyB6NqX1MQqR1tWY+szgWu46tfaSnuro985MJIYQQQgghhBCTW6a7bQnxhgrj8fc4Wt9I1v4cjnO6TSaD2VdOKVAoBPh+CzF/P0T0yZ6KisZMTxOtq5sD5rJRPQaipLX2gUzHFLTuiopneNu2T7MxX2fP+wu5bmoPvwCwMSDHiZLj3K4cZ3W0qekMPPaY3LgQQgghhBBCCCHSIF+kxbiY19DwNkt0NYCPUDg8lz0vsO6+5DhgY/o4mazT1t6+Jcjlo+HwO6DUW9mk2ciSCMT8VG919d+DCSxYvddc0wfgPxesX7/OHxw8G0pdqfLyjrMDAaw+MAYMgEKhD7PnvS/60ktPoqnp1q4VK+7N/GRCCCGEEEIIIcTkIxWAIlDRBx7IL47Hr7BEPyPHWQal5nJQVX9EgFKwvn8/M59Gg4NfDzT5x0wA3kbhcCjdJcykFFip+zDBO3G/9JnPdHVXV99pHefjPDh4LQFeYNWAySRAlA/HOYOtvaM4FrujqKGhJJDJhBBCCCGEEEKISUQqAEUgShoaIv1KfYx37foilFoKrSNpV8mNVKq7rw9rNzLzTUmt7xlqXBGowqamuUz0LhpF9R+sTRprf4FJ0nWrd9myVtTV3TA/L++3vrW1BJwEpULDjT0yxlqwtYBSc8G8krQ+MxqP3+ZFIj/eXl5+IHMTCSGEEEIIIYQQk4ckAEVGLWluDu0aHDwhwXylZj4fSqmgGnxApQpYyZguS3S7k5d3y5by8l3BTPbPyJhF0PoD6SY2SWvAmF9Py8/fsS2g2LJi1SpvC/BbMJ9WHI9fTMyXMXAcOY7Dfob7nKTOKQWihdD6Bmdw8MyiNWu+lwyHnxyP5K8QQgghhBBCCDGRyBJgkTHReHzh7sHBrxLwCBznAhCpoJb6UigEZt5LxtxNjnNeT2Xlt8Yz+QdmIq0XUyRSlHaCU2sw8IulwOSsWCPi7srKOufAgVPI2v8C8CI5TjCNQpjBvg8o9SEViTwUsvameU1NJ6K2Vv62CSGEEEIIIYQQQ+RLshizY9esmV4Uj3+aiVbDdb/BRLOR6YqvIeS6AABOJn9PxlzT9eCDy7cuX/6HQCZ7A3O+971pYP5g2o9TKcDzDiiip35SXh7Qmujc0Hnppbu7qqqusb6/3HreA2AeGH79Ms4YsO9DOU4NM/80Wlp6TWF9fVkwkwkhhBBCCCGEEBOLJADFmBTFYv+633F+Scx3k9ZncDKJQJb8EkGFw2BjfsdAufa8c7qrq+/ET36SlSRaqLj4MGI+ezTLf9mYR33m7oBCyzk9lZVPR5jLyfc/yb7/s+FmLUFgzwMrdRQc57vKcR6aF49/8aiHHgoHMpkQQgghhBBCCDFBSAJQjEo0Fnt7NB5vJqLb4LongUix5wUzmdYA834kk18nx7mgp6LiJ1suvHD8lvse2kKEQsVpJzsdB0T0m94VK3YEE1Zuaq+uHuyqrv41+/4lACrI2hcRcDUgaX2sBa7r27btV0Xr1p0VzGRCCCGEEEIIIUTukyYgIi0Lb731sGRe3oUMfAlEc4BU1VXGEaX+yZwg3/+VBb5SNDj4woaKioCyjGlobtYYHDwJAKV1nFKwg4O+Vep5EE2K7r/p6qmp2Q5gbbS+/nEGasB8JSk1E0BmuwUDqb0BifKh9cnKmBOLY7EHQfTt7kjkBUzy5ddCCCGEEEIIIcTBJAEoRuSotWtn9Pn+GR7Rd0ipo8FMQXX3JccBGzMIa5+3RF/vzc9/GOXlpieQ2dJXMneum+jo+DjSXf6rFGBMp2ttR0ChTRTcVVPzEpivK77rrl/A2m+B+X3kOLPYmMwmAplTjUKIZoLoArL27Ojg4M0mHr+lt6JiUjVhFkIIIYQQQgghXo8kAMUbq6tzi0Oh9w5YexG57go2Jpg9/gBAaxARrLUtAO50du36UfdVVw0EM9no9Xd3z9RES0fT/Re+v2lWXl771mBCm1iIuBvYAOCsoljsX2HMl8H8TnLdzFeVDiUVmWgmOc43lO+fFm1o+P6g6/5m1/Ll+zI7mRBCCCGEEEIIkVskASheV2F9fRlpXUFEV7DrzuRkMpiJiFLdfX1/N1v7EAH/1V1R8Uwwk42dY8wJDOSldRAR2BjDwN83lpcH9EROXD2VlT8tjMf/VwNXs++fQ+HwYva8QJLN7Hkgx/kAiD4QNubO4qampu4VK54Y6fFzb7llmpo+fa72vBA5zsvlignfPzCrr29ny+WXJzIetBBCCCGEEEIIMQaSAJwECPBGtWiS6JCJirkNDUVaqStIqU+R4xzLvg8ElfxzHCA1fj0Bq7sqK58KZqLMYeaTMYr9/+D72xl4MpioJr6hJblfKqyvv10xr2Siy5Trzgxij8mh/QFBodBF7Hn/VtzY+KAy5kdbV6485PlXVF//FuW6Z7G17wFRIZjnwnHcg68713EO9M+atSva2NjBRH8YsPa/91RX78l48EIIIYQQQgghRJrSS2KI3NLcrKODg59ma2+AUiVp7Z1GxMT8e2PMN3pran4zPN78/v7zLdHnGXgnua4OrLMvkFrya8xTBHwnnJf3RGt5+d7gJsuc4sbG30Kpk9N5vslxYH3/Wa312VuXL98SYHiTwpLm5tDewcG3G+bLSesL2NqMNwl52dDScxjTbq29JcL84/bq6kEAmLt69VE6FLpKEX2YrV1I4XAEzIeuTCRKJXqtBfv+PgCblLWPhhOJG1tXrZoQ57YQQgghhBBCiMlJEoATETMd8d//XaaTydWk1FK2dvqokyNa74IxvwHRejBXADgNSk0fbp6QcUQAEcPaHUz0Y5tI1G276KLezE8UjOhdd81h3/87gMJ0E4Aw5sGuFSvOAVFAmazJZ86aNdPDSn2Utf46E70FzDqoRCBpDWYehLUbYe13SOtjGLgCzHPJcVRaDUqUGk4qeky0yRpzfW9Hx09RW+sHErwQQgghhBBCCPEGJAE40Tz2mBN96aVKy3wdKRUdc6KOKHU8kQ9m5+X/zjSlUv9k3k3W3muU+kFva+tzqK0NqKNIMIrWrTuVfP9eEM0Y8fNEBFibgFLf7q6o+HawEU5OsxoaZuVrfTFbexW0LgQQTDMaevlPog9mBSI15utBKZAxCSZqHBwc/PJuqQYUQgghhBBCCDHOZA/AiaS2VhV1dFzESt1CqXa5Yx9zOLnB7LzqvzOIQiGw5/Uz8x+Y6L96q6oeyPgk44Q8770giqT9PBHtV1rL/n+jtKe6es8e4HvF8fhvyNprmOg0ct057PuZPWdfGStz14O1YKXCIFoVDodnFsbjF/ZWVPSNfWAhhBBCCCGEEGJkVLYDECMXLS2tUkrdBIAC2w8tk7ROdfe1dhOAr830/U/1VlRM2OQfABDR26GUm+ZBADAQPnDgT4EENYV0V1Q809XW9hmy9nL2vCcB+OSm93JkxdD1Slqfr4z5j7m33DItyxEJIYQQQgghhJhCZAnwBFHY0FCjlbqVlQoHsvQxw8h1YX2/k5hvNsz3bauq2pztmMYqWlc3hyORJ+A4i+GnsZVbagnwo91VVWcEF93UM6uhYVae1qcR8Dk4zqlsTDDLgjOJCKQ1kEx+s6uk5Ns49VTZE1AIIYQQQgghROBkCfAEUByPvxPWfpEdJ5xW4ikblAIBsL5/Gyt1W8/y5X8HMAHKFd8c5+cfR8zTON0kE7MB8NtAgprChpYF/zwajz9jPa8awBfJdacjyM7VY8UMthbkOFdEOzp+3QXIsnAhhBBCCCGEEIGTJcATAAFV5LrHwZhsh/L6UpVNlq39X1h7BgPX9C5f/jdMkuQfAIB5MTOPvPnHK3zW+s9BhCSAroqKzsPz8m5wrH0/J5N3E1FyqNt0tkM7NGvBRDMB/D80N+tshyOEEEIIIYQQYvKTCsAcd0Rj45EAzkSu7vunFMDMYO5ga++YNnfuD1rOOiuR7bCCYK19i9J6+igagHja2j8EE5UAgI3l5UkAf0NdXUVRJBIH8HVS6m2kVB7nYuLcGDDRO6J9ff/WBdyV7XCEEEIIIYQQQkxukgDMZbW1ylXqJA6FjuJEjuXUlAJpDU4mt4PoPsf3r31p5cqubIcVmNpaRUTHkOtSWq8FEdjatq2LFu0NLjjxslWrvB7gYTQ3/0/hwMAljlKXQ+syBpBzFbREIUtUA0kACiGEEEIIIYQImCwBzmHzSksPY+aP51zlX6rqbxf5/s8UUN1dWXnRpE7+AYgWF88m5qLRNJkgor9h+/YcexEnufLyZG9l5c2W+d9gTAzMOykUyq1lwURQRIsL4/HSbIcihBBCCCGEEGJykwrAHMbWzmWlTs6pxh9EIGYP1j5lHWed8v2BeU1NZ7MxngW2ku8fiD79dNeGO+7I4U4M6bPhcCEpdXjaDUBSydLforw8x9vTTk7dFRXPAKia19DwXmvMZ0D0eXIc4ly4ppjBzIcB+DiAH2U7HCGEEEIIIYQQk5ckAHMYA3MpFCriZDLbobwilbTQIHoPrD2RtSZYS0xkCDjAjuN1vf/9B4pOOmmAiLrAvIWU2krMzzlE7R0VFW3Zfgij4Vg7xwdmU5oVZEQEx/c3YDI1Q5mAtlZX/6EwHv8bAY+Q719Nrnsq+z6yWl3LDGidp6w9PntBCCGEEEIIIYSYCiQBmKtqaxWAxVA5uEqbSEGpOSB6VVaLiECpfwEBGKqy8pk5wUB/kjlRHIukaggLAAAgAElEQVT1M/PzBLQqpf7Ervt41759Pbj4YgMiRo4myozjLFTh8DQeHBz5QURg39/THw53BxeZGKneioo+AA8V1df/HxFdDGuvglKzs5kEJMchHhxcmLUAhBBCCCGEEEJMCZIAzGFsbYhybf+/YYdYCnvISIkcpM6zguH918jaYwBYy+zD87zicHgnNTX9DfH47wzzM0apjZaob9e8ef049dQcWKsJsDFRAtIr/1MKMOa5iNZpZA1F0Hpqarajufm70UTiMcv8U1KqeDR7O2aMUjp7kwshhBBCCCGEmAokAZjLlMrR7F8aDk5gvjqZqQCEwByCUgUMLATR2cpxoDxvkIBfRdvbn+LGxt+TMb2KefuWCy/cNc7RAwDmNjdPUwMDC9OtFKNUAvAvAAaCiUyMWnm5UevWbWff97PaGIQZDEw7ds2a6ZtWrtyfvUCEEEIIIYQQQkxmkgAU2TecWGNOVRYSRaD1J6DUJ0hr8MBAm2H+fXF9/RPsOM8roK2roqJzvMJTg4NzmegtZEx6B2oN4/t/6iovlwrAHMS+n/2WwMwgwNlLFAEgCUAhhBBCCCGEEIGQBGAuY87BDQDHATNe1aVVqVLSuhRaL8PAQMIq9WJxY+MmBp4l4PFoIvHUhlWrAus67DJP95nnp1UpRgRYCyLajBzd13CqY2sVlMpuEjC1x+eenpqa7VmNQwghhBBCCCHEpDY1E0wTQW0tK6IdWV2emCusBXseeHAQ0DqsHOetlJd3HhF9A0o1dkcijxQ1Nn6jsKEhkG6qHtEcFQ4vTGufOCJwMrmdmXcEEZMYO6P1S0yU9epMZpaLXAghhBBCCCFEoKQCMHexVapVeV6qmixXm4GMN2vB1gKp50WTUqVQqpQ87/1EdHFxLNYDol8x8709bW3PoLZ2zN0dXGCW1Tr0cjJ2BK8FKQU25nltzN6xzi+C0VtR0Vcci+3JWpI9lSS2SqmN2QlACCGEEEIIIcRUIQnAHOZYu9swt0LrMkkAHgIz2BjAGIAoBKJ5AObB2rcRcHlxWVkbxWI3w5hHksx7doy2ycKOHQ+jsPAMAF8DcCKIZkIpgrWvnwwkApTqVL7fN9qHJ8bFk7D2HcheNXQfAX/O0txCCCGEEEIIIaYISQDmsILZs3v27d37KLnuxZxIZDuc3MZ8cDJOAygA8FbW+k4AfQ7z48Wx2N3a2j/aZHJr16pV/SMdestVVw0AeBTAo4Vr176XjPksGXMyAfMRCrnsef+cCFQKsPb5LU8/LY0dchgzbyKlfDCHxn3yVGXvDh4Y+M24zy2EEEIIIYQQYkqRvadyXGFDw/kqElkLz9NSBThKRCClAK3BiUQ7lLqXiB4C86bRdhMuuuOOJSoUKofjfISNeReFw5qTyZcTgZSfD+7vX9FdWbk2o49FZMzSujq3Kxy+H0p9NFvXFhHd3VVR8ZmsTC6EEEIIIYQQYsqQJiA5jn3/MU4knqPQ+BcoTRpDS4U5mQS0LqFw+ApY+6BlfrAoFltT3Nh4Xrodl3suvnhjV1XVtclE4iMAPm0971Yw7yfXBbQGkskkMW8L6BGJDOgKhz8HpU7NyuSpfQf3kzE3ZmV+IYQQQgghhBBTilQATgDF8fhXQfQfYM7PWhWgep382KuX3k4cSoG0TjVi8LweYv47Mz9urV3fW1PTmu5wc5ubpzn9/e8A0QoQnQfmEJhP6a6q2hBE+GJsog0Ni0HUDNc9nn1//APQGjBmfXdl5QXjP7kQQgghhBBCiKlG9gCcADzP+2HIcU6F43x4XJIVr+06TAQy5lkmSr7q95gZREcDmPW647z69zMc6BgMdxMGAK2LoFQRPO+DSusLo/H4A9b3b++pqXlupMNtLy8/AOB/59x335/d3btvJ6K3J7XuCih6MUas9cXkOMdlJfmnFGDMVm3tteM/uRBCCCGEEEKIqUgqACeIoljs3SBaR0odBWOCm4gIxPysIfohgL/rgYHN6rDD7OD+/d6hfn2aUtovKFBOX19oAChRzDPhOG8B83wAxwEoBdEcMIeRSjiHoZR6OcmYSxWERKkfay2IDgB4ygKNecb8sr2gYD/Ky0f+xNfWKlx7LYMoRx6cGDavqelEZn6QlZoX6LV0KKnmMINgvrC7qmrd+E4uhBBCCCGEEGKqkgTgBFLU0PAhUqqRHGdRIJVLWoOM+Yu19tye6ur2TA07v7k5zx8cfLcGSo217yaljgfzXAJmMHAYOU4ERKmKPGtzKyGYiuUfimiNZ+29CxKJzg2rVh0yGSpyX2E8XgBjvq8jkVWcTL75AZmkNUhrYz3vCz2RyO1pJZSFEEIIIYQQQogxkATgBFMYi52uiNZQKLSQE4nMDEoECoXAyeQzypjPb62u/kNmBn5981evnu2HwyfAmHcrondYYBExzwMwj/LzFXwfbEwqIZhtSkGFw7ADAx0ENBprf+m57nO7li/fl+3QRHqKm5qWAWiCteP6t48cB2DuZ99frfPz/31LefnAeM4vhBBCCCGEEGJqkwTgBFS4du3xGvh3BlINBMayjNFxQNaCjflhSOvvdqxY0Z2hMNMSravLN3l5ZdraMta6lK09iYD3Uji8cLiL77gv13wtpUCuC04k9gP4E4D7Q0qtz9ZzJtJzxJo1Jzqh0EMAojxeiWWiVPLPmL/B97/RVV197/hMLIQQQgghhBBCvEISgBNUtK5ujo1EPqeIPs9KzR5NcowcB2zMJhD9gPr713atWtUfQKijcsSddxYqx1moiUoZeDcTnUmh0FtfTgZmszJQqdRzl0wOEtFfrbU/mbZv350tl18uFYE5amldndsdiTzMjvNhjFfjj9SS+iQDDdbaW3qrq/82PhMLIYQQQgghhBCvJgnACeyoH/4w7M2aVeYx38LAqWkebkDUaIHreysq2gIJMEPmNzfnGc87QiWTxaz1uWztR5joBCJSALK3Z6BSIK3BnjcAoANEP2Pfv7mnpmZ7dgISr6c4Hv8amL81XvOR1oAxzxLRlQnP+78dK1fuH6+5hRBCCCGEEEKI15IE4CQQbWysZ6IqpPd6Jgm4squy8taAwgrEkubmUNfu3XnT8vIWeERnk7Xng+hIMOdDKQ1g/DsLEw13d/XB3EPAamXtXVuSyXZIw5CsizY2foKB1VBq7nidF+S6YN+/19W6pnPZst3jMqkQQgghhBBCCPE6nGwHIEQ6NpaXJwEkdwN7AfwdtbX/WVhW9hbFvBLWfghERQAKyXVp3JYKMw/vT+iAaD4T1Rrg6uJI5Id8xx13HT5r1otDcYtxNr+h4WhD9B1ynLmj7pyt1OiSyszsE+nRTSqEECKnPfaYM3/7dld5XsQODBAAqLw8ThjjGiIdtjZJnvfKG8eMGXD6+uzhyWTfhu5uRm3tOO1HIYQQQgiRIglAMbHV1tpe4O8ArkRzsy7q6/sgaX0uPO89AI6jUGgGmMG+Pz5Vga8kiqZRKPQfYF65e3Cw7og1a36+rabmWRBlab3y1BOtq8u3Wt8ErZfw6BvIMJj3w9owlApnbbm5EEKIrJi9du2MvIGBGaz1EXCcfGvtTAUUcUdHka/UYYp5PruuBgDr+1YTHaaYCyzQC9d95c0nkYBRarA7L+/F4pISD/H4DlZqi0ok9rPWA1apXZxI9G/bunWnJAeFEEIIEQRJAIrJo7zc9ACPA3g8Wlc3B5HIeTaZPJWI3gaiY8l1wZ43bsuDOZkEtC6E43xDM59fHI/HqL7+l101NX8alwCmsA/V1jr/CIVWKqKPwZjRveZKgYzptkRriagKREdIAlAIISa3+atXz4bW8yxRKZRawMYcz647n4mWgHmOKiiYBmtBzKChm36v2n9l+H8nSv0cTOvUewuQ6hKvNdiYAwB2a+YWhEI7iktLX6TGxlYAL5HWva7vd7RXV+8Zr8cvhBBCiMlLEoBiUupatWoHgDoAdYX19WUhrY9Pet5ZxHy+ikRmcDI5PsuDrR1OBB5DWl9vPe9zxbHYg9aY1b01NX8MPoApqLZWPV9WtlxpfT2sVWNI2hkoVaeJ7rPMl2QyRDFyhfF4gQN8lh3nA6Nexj0ZEYGtbVHAASbaq4heZGu71M6dz2+56qqBbIcXtLnNzdPcgYFL4LonyXmRHWTtk11VVf8v23FkQjQeX8jM5zLwPpPaV7gQwHzKyyMaXkFgbeo9vb8/s5MTTQPRNCi1YDgpCGZwIjHI1u5MEHUVx+OdZMwzpPXTWysqHgcwDh9gxl9xY+N5IDofRKP/fkIEGLPTWvud3pqa1gyGNyUdcdddhdrzvgmlCsd0E5TZKub7tlZVxTMXnRBCiHRJAlBMekMfAFtnr137mOt5P+bBwZNA9CVoXQZrx6ci0BiwMSCti2HthUrrM4vj8V+x49zUc8EFG4MPYOpYsGjRUsN8PYDpPNokLxFg7VORwcGb+wsKjpFuSdkTPnAg5E+f/n4Khz8FpbIdTm5JJBiAD2bPAvsBDNo5c/YVx2JdDGwkrX9nlPr9tgsu6M12qJkW3rcvZF33AxQOf0LOiyxJJgFgwiYAj7jzzkIKhc4m5n9hoqPBPE+5bgEAcFDJvkMZqiJ8+f3KG+odplQERPNIqXkgehcznw1gd3E8vhXMfwHRw7a395Hea67pCz7I8UHAEtb6X8l1R//ZTClwf/8uxXw7AEkAjpVS08D8SQqHi0Z94zyVlAV8vwOAJACFECKLJAEopoxdy5fvA/A31NZunFda+lPf99+viKqI+TQmmg6lVOAdhIf3olNqAaytIc87pzgWu4eZf9STn/88ystHvVmdGGr6odR6JopitFVBRCDmPUx0ZeuqVXsL43ElCcDsUXl5DOYEJxKpJfziFUTEgAvABVE+iMBEAPPxZO3pMOZibcxANBZ7kZjXguh/aOfOlyZDhaDKy2Pr+3JeZBEBiWzHkK6ShoaIFw6/3XjecgDnEjATSuUPL9fNqXNpKNny8h62RBEmKiaiYjZmKZjPV3Pn7i2Oxx8k5p8Yoqd6W1sHUFs7YasDGfBgTJKtDY0lAQiifiKasM9DLiFjGEA/JxKjXzmTel8yAKQhnhBCZJkkAMXUU1trtwI7AdwP5gcWrV5dkgiFriRrTwfRAnLdaYF3EE6NTSA6AkSryNpl8xKJG5w771zfcdFFbcFNPHmVNDQUJZS6E6nlW6MbhAhQyrDvf+/Ytra/dGc2RCEy6+Dz/J/PeQ2iaQCmMTCXlXofmAdp9uzfFDY2rtNKPdkViWyVmw5iKojeddccNuadCWsvgu9/gg5eYsr8ys25XDZcKZj6L3p56TDzxQxcpJn/FC0trfcbGx8J5ed3bSkvn/CJfiGEEEJkliQAxdRGxB1AG4DLD6urmxmJRM7nZHIFlFpModDhbEywXwwO6hrMrnt90trlxQ0NP3SZf9Upe9eMWPSuu+Ykkskfg+iUMQ3kOEAyeW949+7bHpcujGKie3WCkADksdZna63Ptp63uai//w40Nj7YU1Ul2xCISamsuXnm4MDAh9jzLiHHOZOHlyJOBq9O+hMrtZQcZ6lOJF4yicRPihoa7j68oOCvG8vLpepKCCGEEAAA2ThHiCG7V63a211ZWef39X0UxlzJyeTPYcwOCoVSiaGAcSIBaH0c5eXd5msdmxeL/WtRff3cwCee4OY3N+chmayF1p8EMOol3BQKgZPJZ4n5a+1XXikdF8XkZC3Y80BKHany8m4kpZqL4/ErihoaSrIdmhCZVNzQ8MGBwcHvM3APOc6Z7PuTJ/l3KK80HVtAjnMVKfXgroGBb0ZjsbdnOzQhhBBC5AZJAArxGtsvu+xAd3V1U3dl5Xlg/qhKJq8gY/5MrgtoHezkxqQSgY7zAQv8RIVCD0cbG6uDnXQCY9b+4OClHAp9FoAz6uSf1mBjdiqlLuuqrn4+s0EKkYOsBQ8OAkq9BUrdREo9FG1svLowHi/IdmhCjEU0Hl9Y1Nh4K7vuA+S6K0FEU6pT9HAiUKm5FAr9u1XqF9HGxv8uisfHViEvhBBCiAlPEoBCvIHuqqoNWyorbzbAeSaZXEXWvgCtU3vFBYh9f3g/uqWs1A+KYrH/KYrFPhbopBPMp5ubdVE8folynK/CWj2mzamtHWRjbu2KRJ7KbJRC5Lih/U7JcY5jra/TzPfNW7v2vdkOS4jRKG5qOo+Bh0mpSwiYyclksI29ctlQIlARReG65QSsLW5svHlRU1NxtkMTQgghRHZIAlCIEeitqGjrbW9fbX3/A7C2gpifglLJ4c6BgWBOdSQkmkVKnaaI1hc3Nq6NNjUdi9raqb1/JzM9kUyuIqVuZGMOG9OyLmZY5gecnTtvkIYIYkpixlCFVB5r/WE25qfz6us/jubmgEuehciM+atXz47G4zeDuQFKvQXA5F7umwY2Zvim4nwodVnC2v+NxmI1JQ0NkWzHJoQQQojxJQlAIUaqttb21NRs766oaApZexobswLMvwWwh7QGVECXk7WpO/nATGi9DNY+VVxa+s3Db7ttXjAT5r5oLHYGGfMtMOePqVtzakn3M3mOc82Wq66SjoliarM2tQ2BUvOs1vdF+/qunrNmzfRshyXEG5m7bt3RxnHuZubLAUyHMVO36u+NWAswa1LqKAbuTGi9vrC+vizbYQkhhBBi/EgCUIhRaK+uHuypqmrurqz8EDNfxNb+Esw7KRwOLhHIPJwIPIwc5z8iBQX3FMdiywvj8SOCmTA3FdfXn8lKNYFo9li+5JHWgLUdGljZtmxZRwZDFGJisxYgUnCc77qO8/35q1fPznZIQhxKUX39KSFrf06uewYASfyNROqmmSLH+RRpfU80Fvu3Jc3NoWyHJYQQQojgSQJQiDHqqaz8afeKFWeB6AucTP4S1h6gSCTQfQLZ92G1fheAJsV8S1F9/ZTY3Lu4oeGj5Lp3QKkjxpr8Y+b9xPyFLZWVz2YwRCEmB2Zwam/Ai/xQ6LqShoZZ2Q5JiIMVNzaerEKh9ey6b51STT4yhD0PpPUJDKzb3d//1Xmx2OHZjkkIIYQQwZIEoBCHEI3Fvlzc2HjyiA8g4u4VK9Z1t7aeA6XOgud9H4BP4XBwQQ41CiHX/VdynPujsVjz/Hj8PcFNmF0L4vEzKRRaB6UWjmlvJ6XA1u4C82VdbW0PZC5CISYfNgak9WUJpeqj9fULsh2PEECq2Qe57joQFXMike1wJi5jACKNcPgbFvh5tKnpjGyHJIQQQojgSAJQiENg4HxynKZ5jY0/LYzHTxvxgbW1fveKFU+obdu+zsacwZ63FkCgy4LZ8wClZrDWnzbA3cXx+Ncm275d0cbGjxhgDYDZY6r0IAJbC7b2hu5I5C7U1o5hA0EhpgBmwBiQ654Lpa4Dc7At0IV4E4Xx+Dlg/jGI5me98m+4ERhR6n3+4J+D/78AVwSM2dDnCHKck2HMmmg8vjLbIQkhhBAiGFO7k6gQh8JMFIspaL3QMi9U1p42Lx5/lpm/nT937hMtZ531puUGQw0lHp/b3PwMHThwmya6BkqdBebQ0ByZjXm4Ik7rEjB/3XWcTxXHYtd3L1nyC7zznV5mJxtf0YaGM5hoLZSai7F+2SMCWbu2YN++H6GqSlpECjESw12CQ6Hl0aamX3cBd2U7JDE1FcfjxxFwGxMVsTdOb23DCbzU3nmGAUuAgVIWxjwP5v2ktYExHVBqO5gViCxb+3YAYQCWiGYycAxSN94VA4pS/65fHn/4c0E29jEcvsYdZwGM+a+ixkbbk58fR3m5vE8KIYQQk4gkAIV4jcLVq0tsKFRAxgxvhn+YBU6B1u/v27798WgsdmPI2mfaq6v3vNlY28vLDwD4PWprPz2vrOxky/wtEL0NWucPdeTLbPCp5TwhEC0F0Fz83HPrdVPTdVs2b26diNVu0YaGM6DUehAdPqZlvwCgFIj5QaPUF1suv1zWjE1FRKnmLxMUM6f+Zgz/jO/kgDEOAzdG167t6Fq+/MnxDSBAE/y8yBb2vHH9DBmtr1/AzOtZqXlj6v4+EkqBlAL7vgXzHjDvA/MGEP3JAv9wfP+5/L6+9pZw2OKYY1IX4/btjOeee+XCPOUUhRdeIBxzDC994QXam0goGw5Hkq672FOqkJQ6HsyLwXw8gDkETGPmAnIch4eafo37dW4MoNQ0svbO6MBAXldd3Z1YtWpC30QU4v+zd+fxcZfV/sA/53m+35lJ052WJtMWUiiCIFcFUdxvcbmyyKIQpG1mki7EcrEsbhcRCHCvG8pVELF0maVpwYALP9kEcUHRiwqKyF6gtMkk6b5mMvP9Ps/5/TEpS0mXZL6TyXLer1deLySZ5znBmcx8z/c85wghhHidJACF2Fs4/OYP3Xv+2RgHSn0cRB/PEd1dlUo1K6K/ZGKxdQdcs6nJbwN+g6amR6IzZnzeGjMbwHuU67rs+8F+yH99LQda1xlrP1F15JHXhVatumPdnDlbg9uohFpaQlW7d3+ctU4AOKTY/z7kuuB8/iHkcvWdjY2bgglSDCmFCpvd7PtrAAzJbA8TjSLmMWAeS+GeBqPWgo0ZmESBtSDXnUbG/M/hK1de8GpdXXvpNy2xYfC8KBcCXhmovaYtWzbR1/qHRPTOUj7XSetCqwhjNrPvv8TAY0R0b3sk8ut+VMO9lqV8/PV/lwPwWM8//789//KQW2+dGhk9+oMMvIt9/yQmqiFrp1M4HH6tOm+gkoGF5Kpmoh9OCYfHmeXLf7hp/vydA7O5EEIIIUpJEoBC7MUl0r61vTfssRYMgFz3LLL2LDbm99XJ5M1WqT90xmIbDrh4U5OfAX44dtmy1ZWOc5H1vPPJcd6xp89W4IwBtK4i5h95wMnRFSuWZObN+1PwGwWImarS6QuV4zQxcEixlR4UCoE97xlf64s2SvJvxCLHgfW8p20+f6YmipQ7nj6rqAAbUwWiw2DtEZTPv42VOgLMM6DU4eQ4hX6gJa6MYs8DIpGPerlcHMC3SrrZAOh5XvzT5vPnDMnnRTkZs3tA9mEmk0pdppT6Dy5V9atSINeF7e7OKKV+S8B9Xdbet+0gKv2DsHnRojYALT1fiKZS77bAJzifP4GIjgHwTgqHB+Q1/hpmUq77DQ2MP2zVqm8NmRuIQgghhNgnSQAKsRdLdAQRjdrfRcae3kPkuh9lz/uoAv5WnUr9vD0W+yaIDnh1smPBgi07gP+OLlmSRjj8CVbqUgqH38H5fMn6A1IoFGNjTqtKpe5lY67rnDfv5WA3CkBTk6pKpy9SrnsDmCPF9vyjSATwvIfJcS7eOHv2moCiFEMUAdkNCxd2ljuOIryK16uHEF2yZJQNh2dYY47Svv9RIjoXodA09rySVgtxLgcwXxFdufKRTF3d4L6hcBAUkO0Y2s+LYW1qOn0yu+4XwBwuRfKLXBfs+xuQz/+v1vr+trq6JwPfpI8y8fjfAfwdAKbffns03919ova8D4O5lsLhwwcsEWgtWKmv+MZsxTBI+AshhBAjnSQAhdiLNWYsAe7B/Cx7XqF/lOO8B553JK699jsADjprlWlsXAdgeXT58j+C+QIAl8NxxhQ97KK3WLu7Aa0nEXNcEb27Kpn8cUd9/a2Bb9RfS5a40XD4CjjOpbA2wkVWRPZU/v2aff/Sjvr65wKKUgxtg3gUZ99lGhu7ADwN4OnokiUPqlBohcnlaqHU56H1pJJUFQOF5KJSY2HMVwGcVZpNBtSwel4MJ+NWrZpgPe8/SetxnAu4dWvP4A32/VXKmO+21dc/eTA38Aba+gsuyADI1CQSD2W1Tut8/jRYu4Ac5ygudZ9AZhDzehjzSOk2EUIIIcRAUeUOQIjBhohsny4CmMGeBy4ioZ6ZP//5CRUV31C+/2HyvAQB+Z5g+rtk7/b0ClPq30jrG6IrV95zaDJ5ZLCb9F1NU1OkOhK5mbW+gpknFJ38c11Y3/9X3vO+0FFf/3RAYQoxaGUaG7taGxqeqtyx478188fg+z8FYAL/G7IHM1ipD1clEv9emg2EACqs/QSFw+dxPh/42gS0k1Kzc9u2XdTW0PCPwZj8e6O1DQ3dnbHYvzLTp9/oaf1R9v1GsvYlEJXmdV5IkO5ipS4c9K1DhBBCCHFQJAEoxF7YWgd9rQgpfFB+HNdc0+8zOU/X1ubb5s9/MpPLNVrgbAJ+A6Iu9DQlDwzznqEBlQycrokeqkok6ictXz4muE0O3rRlyybmZsy4CcBCMEeKrlpyHMDzngTRvM0NDVL5J0aUNYsX51rj8X+279gxh5WaB+YOqBK81ReqjiYQcClaWmR4hghc1YoVkxXz19mYUGBVbkSAUmDmv/rMn8rU1d2+ZfHiHcEsPkBmzfI31dW1t8fjS8cY824AXyLmNSDiwF7rRCAizxJd2l5X90AwiwohhBCi3CQBKMReiGgmmEf39YKDiIJpyNPY6HXE4/ePmjz5NCb6MhnzPABAB3yNzVzoIUQ0QzlOwnHd26YlEscHu8n+RdPpw6zj3AWlFgJQRU/7dRzAmCcRCjV0zJ3712CiFGIIWrw411FXl2atz4Qxf4HjBF9RrBRIqRMPzeXeF+zCQgCk9WdYqeMDO8pOBBAxrL2PlTp/Qzz+z2AWLhMifn7+/J3tsdj3EQqdwkACzBuo2Nc6UeHzhrVLO7dtaw4uYCGEEEKUmyQAhdgbcwWAsle0rDnttFzH3Lk/UtaeR8w/grWdFAoFfxHPDLYWynE+5yv182gqddG0lpaJwW7yVlPS6RlMtBJazwqiumPPtF9WamHmggv+HkCIQgx5HXPn/hVK1ZPnPUVBVwIWBgRUOcZ8JtiFxUg3raWlAsAXghx0Qa4LtvYvCoh1xmKvBLbwIJC54IL1HbHYfDB/Hsb8hrRGv6sBC1X0DyrPuwqLFwfceFEIIYQQ5SQJQCH2Qv3sA8TMJXk9tTY0PJWJx/8T1p7O+fwPwJwl96BmlPQJex5I6yPZcW4x2ezdU1Kp8wPfpEdVKnWqAu4hx/lIEE3MKe34cnMAACAASURBVBKBNeZhCoU+K5V/QrxZeyz2rGL+LPv+XwM9DswMchyHiU6ZmkodEtzCYqSz2ewcAMcEcvS3UPkHzuf/qHw/3haPby5+0cGpPR7/ed7zzmbPa4S1m/r6WYFcF+R5/7BK1bUuWLClRGEKIYQQokwkAShEEIjARK8CKFkT8fb6+sct0ZUgOod9/3elSALCGMAYkOt+SLvuzdF0+urjWlpCQW5RlUicpxznNtL62CAau1MoBOt5D+eVuiQze7b0/BOiF60NDS+y49STte1BVhFzYWL5DFbq6MAWFSMaF3rwzgZRMJX4hR69GxxrL8/Mn/98IGsOYpvmz9/ZXl9/GxOdy8b8jkIH9xbe00KjHUpd0xmLbShxmEIIIYQoA0kACrEXpv5dHSugI+hY9tYZi+1uj8V+xb5fS/n8VSDaDKWCHxLieYC1kxn42uZs9oFoInFM0es2NaloKtVEWi8B87SexEFRyHXBnvc0WfuFLbNny7RfIfajY+7cZwi4AkDxL749rAWFw+OV7x8X2JpiRKtKp98LomMCe19jzhNw4/qGhhFVHd4Ri/3e9/0L4Hm/JMfh/f73JAIbs42Zr8m89NJ9AxelEEIIIQaSJACFeKt3UDjs9OPoUcmq//bWMW/exrZRo75pmE9ha+8CsIsCnhbMhcbrYSKaxUr9uiqZXNTfScHjE4nxVYcfvhTMXwMwgYNo6q412PefsMD89ljs2eIXFGL4G19RcTsxrwp0qBAzjNYnTLr77rJMEhfDCzGfysDEQI7/KgUCHs9UVHy3+MWGno0NDR2jtm07D77/PTBn99kCgNkH84/bX355OZqagrtBIIQQQohBRRKAQuylVL38AldbazbE4//siMfPI6ARxjwOgIO+sAczQDSViH7kum4iumLFCfjtb52DXSKaTh9WofUqUmoeK+UGMvBDa8CYBymbPaczFnus6AWFGCGerq3NK2v/B8ZsDqwfoLUg5nfTjh1TgllQjFiF95aPkOuGA0kAWpvzrf0yamsDGiU89KxZvDiXice/DKKvwdotb3ndOw4A3Fm5fXsTmpqCm7oihBBCiEFnaCQ6hBD7lYnFVltjTgXwAzBvDnxacCEJCDVq1GdZqe8f/fLLFQfzsOpk8kQodQu57mmvrVMMIlAoBFj7kG9tPNPYuK64BYUYeVqB9SC6lZyDzuPvFxsDdpyjwtaWfHq4GN6qXnnlbcQ8JZDpv4WbYb/ZsGXLE8UvNvS1x2LfB/A1Yt4GrQtDfEIhwPf/Frb28jUy8VcIIYQY9iQBKERQylw52DFv3sb2WOwyMuYs5PMJAAisGpAIUApm1677lTFffX7evF37/fmWFl2dSl0Cx/kFHOeMIIZ99FQt+JzPf8vZtev8jQ0NJe+5KMSw1NDQrY1pgeetpyD+RhQSCROZSAaBiKKQ43yQiaZxsQlAIpBSgFI34bLLuoOJbuhrj8eXgLke1q6nUaPAxvxBO87stfJ+KoQQQowIkgAUIiAWWAeiAesDuC+Z+vpHHcf5IgMNMGY9iq3yIdrTIPwG7XkXts2f/+f9/Z41iUSkuqvrRgDXE9E0zgVQVLAnBubrKrdvb1p30UVbi19UiJHLqal5kZl/VvTfhz2MgbH2UDQ1yecKUYy3K9cdU2wFIBEB+fxziuhfg+F9eTDJxON3K6IvwfP+AeZvtM6Z82K5YxJCCCHEwJAP6kIEoVBt0F7uMPZYN2fO1o5YLKmAj5MxK0Dk96vfV+EY8QZivsCpqLimbeHC1v39eHTJksO6lfoJtL4ISo0JYtIvlAKYd4L5yoi1N8gxJSGKt3bWrG5Y+wh7XjDtAqyFIjp+5syZo4tfTIxYzNOhdfFPSMcBE/0hC+wIIKphp23u3Lt0d/fp7dOm/brcsQghhBBi4AR0618IAQ6iY3mw2uLxF45raVm0pavrPij1PRAdDiIcsLqikCy0MObRENElr8bjf9/vzzPT5OXL32VDoZRS6ni2tvh+f0DhCLMxGxXzN9vC4ZtQVzdiG7kLETQVCr1sPa8DjlOFACZzM1CZ37EjwClEYiSZ1tJS4WezEymg6b+w9q9b4nFJAPaGyK4HMuUOQwghhBADSyoAhXgjZgLRsLqAfbq2Nt9eX/9TrfUnAKwkYPv+mv9ToTn4TmJO61Gjzj5Q8m/ajTdWTE2nY47r3k1KHc/GBJL865n0u9ZqfUFbff3/juQpjkKUQsXmzS8T0RoKYhowMxiYmq2oCBe/mBiJunO58UQ0PpABIMwGwPriFxJCCCGEGD4kASjEG0z73/+NEDAhkOq1QaZ1zpwX22OxGIy5DL7/d3Jd7H0smFwX8P0XydorMi+/vLC1tnbL/tasammZbCZOvNICSSg1PYgqIhCBIhHA2ieIeW7n3LkPF7+oEGJvaxYv3mGt3RrEsCC2FgRMcpndAEITI5D2vAowVxb9/qsUuLu7i113czCRCSGEEEIMD5IAFOINuseNc4hZD8cE4B6Z+vqEV1FxGufzX4e1W+E4gFIgrcGet4SIzsjU19+Cpqb9NvCrSiROo1zu5+Q4Vx7UseKDoRSgNTib/bFiPjNTX/9o8YsKIfZJqefY9/1A+gACw/cPpyg9okoAo4vtpkGFqfVZ43leMIEJIYQQQgwPkgAUYgTaWFvb0b527TdJqfPJmOdg7Qa29sKKioqvtsXjLxzo8dFkcjER3UpafzCoI79QCmytR8bc6hnzldZ4vK34RYUQ+0PANvY8SdyJsnPC4dEAxgZRAQhgq2KW/n9CCCGEEG8gQ0CEGKmammwGeCi6cuXZZAxlGhqeO9BDan7+8/G5nTu/CKLLQFTJQRVYFCoId0Oppnw+v2TT/Pk7g1lYCLE/CnjBKrUVRIcO58pnMfixMQSg+FJUZhCzCikVSFmrEEIIIcRwIQlAIUa4TF3d8wfxYzRlxYr3du/Y8b+k9UlsrRPIkd+eY4fEvM4w/1fnSy/deaCjx0KIADFnichI6k8MF2wtiPlQX6kJ5Y5FCCGEEGIwkQSgEGK/JjY3jw173llE9H1WamIggz6AQvKvUPn3N/b9RZ3z5/8tmIWFEAeNgmn+17OWT0ZyiaJ/iMgyEMCdJYCVco0MpBFCCCGEeBPpASiE2KdpicRRYWO+A9dNs1ITA6n6A0BaF6b9WtuitD6nXZJ/QpQHM4Oo6KQdKQUwt3JlZXcQYYmRx+TzO0C0teiBNNaCIpFRDnNNIIEJIYQQQgwTkgAUQvRqanPzudZx7ifHaYS1wQz6AApTfpk3E/MV1d3dc9vmzm0NZmEhRF8xMBbWhoteqFDR29FtbT6AsMQIxEA3mLsDKUr1fTDwqQktLeOKX0wIIYQQYniQI8BCiDeZuWLF5F1aN1nmz5DWVYEN+gAArQFj1pFSl0yIRO57PBYLcHEhRF9ZpaJkbWXRCX4isDGvbtm2LRdMZGKkUdYa1toPIgHIxoCJPhHq7p4IYHvx0QkhhBBCDH1SASiEeM3UVOr9XVr/gogWgSjY5J9SgDGPkOednamr+8XTtbVSKSREmRFzFFoXXwGoFED0ChYvlgSg6Bd/7NjNADZBBfDR1Foox6kG85loapKb3UIIIYQQkASgEALAzObmsdXp9BUW+CUTfQAABTbsQymQ6+ZgzE28ffu5mQUL/h7MwkKIYjFzlEIhKqoCkAjwPIbrrg0sMDHibKyt3UXMxfcA7MHGQAFfOnTq1EMCWVAIIYQQYoiTu6JCjHBVzc0ndVl7NYDTQVRcIuCNiArJP2Az5/Nfaz/88BWYNcvf30Oqly073HpetnPRog3BBCGE2JcJS5aMI6LDih7uQwRrzMsOsDmYyMSIRbQRAAMI4BwwA0TTnFDoajBfHMSwGyGEEEKIoUwqAIUYoSYtXz5mSiIxm6y9D657BpgDTf5Rod/f35XnXdheX3/bgZJ/Ven0aRQK/UqNHp2avnx5NJhAhBD7EqqomE7MhxVb7UuOAwX8xbpuJqDQxAhFwD+5u7srkGPAr1sYbW4+K8gFhRBCCCGGIkkACvEGdvduYuZgzh8NYlWrVx8Xct1vE1EaSk3ifIDt+JQClAL7/l1a63hrQ8PP9vvzLS2haCIxj4Bm1vpoct1PGde9Jbp8+dHBBSWE2BtZezgcZwoXWwGoNRh4LDN79qZgIhMjlQGeA9GmoI4BgxmslGuN+V51Ov2eYBYVQgghhBiaJAEoxBts2bKlC0plA7v4GGRqEolIdSr1NfK8exEKLSKldGC9/gDAcQDmTmaOt1dUzGmdO/ep/f34tETiqKru7tXsOMtBNAG+D87lAMc5G6HQvVWp1KnBBSeE2GPS8uVjFNF/wHHcoip/lQLncjuY6B/BRSdGKj1x4p+IuZ2CrAC0FuQ4R5C1d1el0+cFt7AQQgghxNAiCUAh3qipyWfmncMxARhNpz+UU+puKHU1aX0453II7MgvAHJdkDF/UMzndNTVpXGAKb9VicRJRqmfkFKfBTPe2IeMPQ9Q6kgFLKtOJC4NLEghBABAAUcwcEGxk75Ja5C1a32iFwIKTYxgmU9/ussCf7C+7wX6PmwM2HGiSqlbp0oSUAghhBAjlCQAhXirIs/DDS4zm5vHVqdSl4P5/0GpT4I5zEFW/RUqNfLwvAQxn9MWj/95vz9/003h6mRyDml9B7R+N6ztNRHJvg/WOspKXRdNp6+tSSQiwQUtxMh14t/+5jquexaFQpOKGgBCBLaWQfToprlzO4KLUIxoRPcS87bAb8QZA2Y+hJVKRFOpm6e1tEwMdgMhhBBCiMFNEoBCBIUGV9ngiUuWuNFk8oO7jbmDtP4eE03YV7KtX4gArQFrXyHgi5l4fH5bPL7fKaCHrl49pWrcuOuJKAHgCBiz/3iMARGNYeav55W6ZfItt4wOJnghRq7Op56qYeZF7O93Ls+BKQUY00nAXTJhVQSlo67uERC1lmRxa8HWVjLRxbar696qVOpUeV8RQgghxEghCUAhgsAMtra63GHsMT2ZPDJTUfElVuphKHUqHyjR1ldao+fY7gNgPi8Tj/8QwH43qE4mT9Sel1KO82UGDr7vGDNApBiY544Z852qFSsmB/AbCDFiGa0vJ62riqr+A9Bzx+OfbbHYbwIIS4gCImbmFTCmNNX4zIX3bMc5mYB73TFjvjM1kTgZTU3ymVgIIYQQw5p82BEiIAo4DOWeIMxM1anUOYYoRY7zDQDhYi/y90ahEMC8Ccw3dWk9u72+/vH9PqClJRRNpc6HUitJ6//oV9VRIQkIhEKLlNbfPnTp0in9DF+IEW1aOn0aAfODaAPAxuwC8OPioxJiL8b8hIk6S7xHoXLfdRdZrX85tabma1OamyURKIQQQohhSz7kCBEUorL2DpyydOnJVen07aTUT+A4H2TPC7bqjwjkuoDn/Vkzn9FeX3/J9jlzth7oYYfu3Hm6BVaS47y9qKQDc2FCsOs26FDonqpE4qT+LybEyDMlnT7FMi9lwC16MSIQcEd7PP7zAEIT4k065s3bqImug+OUdiNmcD4PEE3iSOR6Zcw91TNm3F+VSl006fbbo6XdXAghhBBiYEkCUIghbuZNN4Wr0umrVSj0E1LqfAbcont77a0w6KPb+v53Qrt3z26NxR472IeyUn8m4CfW82wQTd3Z80Cu+x4QLZ+UTJ5Y9IJCjADRROIYBXyTtY4WfWOACGDe6BLdGEx0QvSC+U74/l+gden3srZwg0nrQygU+iQRfdv1vF9Fk8kfVa1YcWzpAxBCCCGEKD1JAAqxF0W0K+hjs6VwXEtLKJpOf3r3uHGPEnAltD4M1iLQ2IkAIoa1/yKiM0dPmnT12kWL1vZliY0NDR2W6PMK+B9m3hVgEvD4ENGKQ1evfn/RCwoxjEXT6cNY69vIcU4K4u8Dac0g+uardXXPBRCeEL1qi8c3O8ZcTdZ6gU8E3hdj9lQEjoZS72CiRnLd31clk3+uTqcvnbZs2cyaRCIix4SFEEIIMRSV+GyFEEMQ80vseT6InL5UyhAwYFnDaCJxzNZc7r8YOBdKVcLaQj+jAJHWYOYdZG1LyNqr1sbjHf1dqzMW2w3ma6pXrvwHgFtJ60OL7kHm+2Ct/037/i+qE4l4e0PDA8UtKMQw09Skps6Y8T5mvpEc52T2vOLXdByw5z3M1jbL5F9Rapro9wb4JjnO1ez7wba12J/XE+UKzJNIqUlgfp91nG/liP4vesQRP/NTqd8RUceYbdu2r1m8ODcwgQkhhBBC9J8kAIUICAPjS73HpJUrq0PMpzHzleQ4M5DPB39BpFRhyq/vrwXzVZl4vDmQdYm4HfhZdOXKnTDmZgqHj+ZckddMxoAc51BmvnVqMnlxW339vYHEKsQQF12yZBKHQuda5iY4zhQE0BagpwfoS2TMl9rmz98YQJhC7NfahobuKStWpBTzeXCctwfxPO6z199jiYnCUOqj0PqjyvMMWfun3ePH/7565coHlbWdOd9v3zR//s6BD1IIIYQQ4sDkCIMQQWAGA8cBKM05pZYWXZVKzXKs/TG0XgatZ3A+H/g2VGi4buD7P2Nr4+1BJf/eIFNX95Aiitt8/s9wHBR7tIt9H+Q4NVapm6PNzZ8MKEwhhqxoMvlBrqj4PrS+FVpPCaI6mLQGiLJKqa+2zZ//ZABhCnFQOufNe5msvY58fysNRD/AA7G20IaCSJPjfJhc9+tg/r1lvj0UCn0runLlBVWp1Hujq1dPKneoQgghhBBvJAlAIfbC1L+MFAHBnsHtUZVInFaVzf6MlPqlct0z2fcDP+4LIlA4DPj+n4n5nGg2+7n2+vpHgt3kda2x2GNOPn8Ge94ve/oMFrUe+z6g1Ay2dtXUZDIWUJhCDBk1iUSkOpmcU51K3ctK3UOOMwdAMD1BlQIDO20ud1Xr3Lky9VcMuExDwx2wNg5rt/cMpSo/ZvCenoEAkeOcANe9CFqvJuAe9rz7q1OpO6emUpdPTyY/Uu5whRBCCCHkCLAQe1HAZsucB1FZXx+HLl06xQmFLoXjxAFUMzMC6eG1N6VAxnicz3/H5vPLOxcufCUT/C5v0bpgwZZJS5Y0upFIB4D5IFJFHWc2BtB6kmX+djSd9jOx2OrAghViEJrc0jJa5fPvU75/Rk7rj8CYGgqFJrIxwf2tKEz8tWxtytmy5UcgGvwTksSwlGlo+OWUdPpaxXwDgEFQCvgGPcnA127OaT2ZlJoMovfYfP50S7Qpmk6vt8xPMPBHJ59/tG3hwtbyBi2EEEKIkUYSgELsxTC3ElEWRKP6kpBi5kDKEmp++9tIrrU1RsxfY2AqMTtFD8zoDRFIKcvG/AnM11Vu2/bIQDcy39TY2D4lnb5MMe8k5i8wkRtAErAK1n63asUKt2PevFRw0Yohj0hFlywZVe4w+sMfNepd5HmjyHWnE/ORsPZ9yGaPAjAWRGNJKc0AAm0NQARi9kB0k79rV1PH5Zdng1t88GBAD9XnRVlEo8iccUa2HENgOiORW6q6uxUBV4No7IANBekrY/Da+zZRBZSaDqLp5PsnExDnUGhnNJl8lol+Q0r9VG3cuK713e/2MGtWGZocCiGEEGKkkASgEHuhQoVL364qmAGiE3DttQr9nAZck0iMzxO9N/fqq98G0fFMpF+rKggS0Z4hHxvZmNW7Pe+6HQsWbAl2k4PXGYvtRlPTV6uOPHKNUuo7YB5d1O9sDFjratL6huoVKzra5837VXDRiqGqpyLuAxyJbC13LP2hrVXQGrCWACgQ0WtH55kLx+AD3VADwA4Gvtq+Zs0yNDUNy8REz/PiQ0P1eVEOtHMnqpcvf1s78OqAb15bm+9gvjGaSKxhrZdD60Ng7cBNB+4P5sL7UuF/KRCNYWAMiKJgngXmJnPIIa3R9esfUKnUL1nrp7p27965tbFxe3kDF0IIIcRwIwlAIfbCzIoA6kdfun41sjtxyRJ3Q2Xlu/LMVzDzOSBCqS5oyHHAxvjw/cdAdH17LDY4kmNNTX5HS8tt1dmsJde9hoiqi0poFKYDT2albp2aTH6hrb7+PvQ1qSuGIwUgVO4gAlOKpAcRyHFgfX+NMuaqTEPDTzD8XzvD63kxAFjr0gy8OhhEnAHunppM7rK+fyuFQkex7w/uJOAbvTlOxcwKRDNYqUWWaBF7Xkc4EvlD9R133GE87yXX2ta2eHxzucIVQgghxPAxSDopCzF4KK13AOhvA60+Vf9VJZPHZSoqrjHW3g3XPQfMwTTt31vPkA9mXgvm73i+f+qgSf7tUVtr2uPxJejuXgRgS89E4n5j3wdpPcMq9cPJt9/+rmCCFGIYc5zCwA/Pe4Ss/VymoeEODP/knxii2urrH2atL2TPexBa76laHZr2VAn6PqB1lXKc88hxfqqsfcAy/yCaTM6vTiZPnHzLLaPLHaoQQgghhi5JAAqxF8X8MjN39aMCUEUPO2zqwfzg1Obmk6PJ5DJS6l6KRK5komrOlaj9nusCzDnkctdzPn96ezx+5ab583eWZrPiZebNu5uNmQ1j1hd7QceeB9K6xvG8lVWrVr03oBCFGF6IQKEQYMyzsPbC8NixZ7XX1z9e7rCEOJCOurrfdVdU1JLnXczGdJDrljuk4lkL9n3w7t0gpaooHJ6DSGQZK3WvO27cfdFUqmlqc/PJ5Q5TCCGEEEOPHAEWYi8es6H+NTdXhmgqgPX7+oFJy5ePCTnOVdb3P0uuewQB4GwJ++orBXje4yD6RnU2+8vHGxtLMEY4eO2x2K+iicR8AM1Q6tBiqiLZ90Guexx53tLoypUNmbq6J4KLVIghrtAPNId8/iZy3RWZ2bOfK3dIQvTF1tra7VuBW6qTyf+znvdVpfV5XKpq+oFm7WuDfUjrKXCcKWzt+9naWDSZfNIQ3asnTlyd+fSnu8ocqRBCCCGGAKkAFGJvRVTisVK9lg3OvOmm8NSVKxe5jvMXJroMjnME7znuE7SeykUi2qqYr7JEp7XHYj8bKsm/PTINDQ8R8xwwv9KPasw3Yc8DO86/MfPNU9LpQwMKUYihhej1L6UMiDbBmB8ord8XsvZqSf6Joay9vv7xXHf3QhhzNpj/TkrZYt87BhVj0HNSwIFSM1jrsxXR93nLln9Ek8nvHpJKTUVLyxA+By2EEEKIUpMEoBB76VywYK0CdvX5gcykrA339i1vwoSJlvliaH0MAAfGBN+wfM90X613gPmnIHp/28svf6MzFtsQ7EYDJxOP/xrA6WB+suj+Tr4PUuoDCkjPbG4eG0iAQgwVRCBgO5jXEfBnsvZSAk5sr6j4Yltd3ZNrGxq6yx2iEMXa2ti4PROP392dzc4ia78Fa9eDyJDWGDbJwJ5+gT0VjpUgOoqVuizE/M/q7u4bq1etOnFyS4v0ChRCCCHEW0gCUIi9ETEDfl8vFYhIk9a9Dpuw+TyB2QFzyab7AgAb80/2vIXta9fWZurqnkdT05A/A9Ueiz3LxsyG7/8VjlPURRwbA3Ld/9htzFentbRUBBimEIMaFRLofwTRZchmz8zE4z/MxGLrUFtryh2bEEHb2ti4vS0ev5LD4Y+A+Qfs+88Qs0fh8PBJBAJ47TNFYZLwRBAthjGPubncD6Pp9IcmLV8+ptwhCiGEEGLwkASgEL0h6lfijIh6PdPrWGsA7Aj8wkOpwnRf319LwE1uOPyZjvr6luGQ+HujjnnznrHM89n3XwpiMAgTfYW7ui4CMIyuBIXYt57poqeD+TYOh1dGU6mLq1KpWTJVVAxnHRdcsLY9Hv9ixHVPs8z/Dd//A5gNhcNDe2rwvlgLMGtoHWfgwZDjfGtKOv2OcoclhBBCiMFBEoBC9IZ5DVvbp1I9BhSYe50CvM3abmJeQyq4lxyFQiDm7cjlbgDRaZlY7JL1n/vcS4FtMMh0NjQ8BeazyPf/WdSFGzOIyLFaXxdNpS4OLkIhBjf2fUCpQygU+hQikZuJ+X5n/Ph7qpLJqyevWnVUueMTolRemTPn1Y76+uuMtadCqTPY834AY56lSOS1CvrhhD0PIKqA616kgPuqk8mlkxOJXk8oCCGEEGLkkASgEL1h3g7u41ldIsX7SABSZSX3t6rwLZQCaQ3O5++yxpwdsvbq9ljs2UDWHuQ66uuftvn8JbB2Q1HVlNYCRKMYaJqSSn08uAiFGOSsLVTBdncDWodJ64+C6CrH939elUpdc1xLS6jcIQpRKp2x2O72uroHqKvra2zMuejunm99/x4QMRXZYmLQ6Xmtk9bTofUCR+ufVCeTFzY1NclnfyGEEGKEkg8BQvSGqAtA35v1EfX6mors3u0zUXFJq8L0Tgbzy2zM58PWLuxoaPjdSGve37Fw4e/I8+oAbCrqv6cxgNYTCbi1JpGoCSo+IYYMa8G5HIjIIcc5jpT62pZs9k9VqdS5YB5GmRAh3izT2NjVMW/eM5l4fIXjeXGr1DvZmP8G8AwAHwC/aWr2EMa+X6h81/ptIPrekhkzfnJoMnlkueMSQgghxMCTBKAQvXsBRPk+PYKIABzd27cyEybk2JhMvy4kCsddGdZ2MvM1rtbvaY/Fblvb0LCt74sND5n58x8ka+cQ88aijgMbA1JqZl7rtDRLFyMW854kQQhKnUjMzdWrVl03Y+nSKeUOTYhSa12wYEvn3LlPtUciTToSeQ8p9T5ivh7MfwHRJlibI60L78UBtvEYUHte40SjodS5WqmHq5LJBrS0DMNGiEIIIYTYlyH6SUaI0iKgf5MxmXtPIp13HvdUFR68nqO+YG4jIGmVen9HPH79ujlztoIo+FHCQ0ymvv5BBcRh7TYU08OJGUz0YUepW+T4oxjRmPccjw+T1l/PhcOrq9Pp95Q7LCEGRG2taa2tzWbq6p7I1Ndf0x6Pv4+JPspKXQ1jfg3mF5l5OzlOoQev1kOvOvD11/jhRLS8Opu9RAYBCSGEECOHJACF6AUxt4PZ9PXDPQNOr5VkRJaYXzqo6gEiUCgEMOfY2geUtXWZGyOxNAAAIABJREFUeHxeZyz2Sp+CGQFaKyoeZuariChL/a0E7Gn1SI5z9taurk8FGJ4QQxbn82DHOQXMP6tKp0+DTMwWI1DH3LnPdMRi38nE458g4NPK2i9az0uy5/3eGpMhpUCRCMh1h1Z1YCEJSBQKfc8ZO/ba6OrVk8odkhBCCCFKb/iNPhMiCK7bBt/3+/owAiKhioqpAJ7b+3vMnCVjChUD+5gvQo5T6MuVzy8ja1uQzz/a1tjYt8rBkaS2Nt/BfMvUVGo8a30FlBoF249ZK9aCHGcMmH8wJZHY0NnQ8H/BByvKTqnChfpQZm2hapW50MeylDwPUGo6Md8RTSR+lHn11a+jqanPfxcHveHwvBhA5Lpg3x9xCeFMXd3zAJ4HsHzmTTeFtx9yyNvJ845Uvv92C5zIRCerysoqeF7huG1/3osGEjM4nwc5zuXs+ycekk4v2jxCBooJIYQQI5UkAIXohc1mt8J1+/bpnRkgcoy143v7tgJ2cj6/EUpNfksCUCmQUmDf/70iuiVbUfHg1tra7f3+BUYSIh69fPkPdhJVQ6lGEOl9JVj3h30fFArVaObrpy1bdn7rggVbShCtKBPSGtaYV6i7+/sWiJQ7nv4gIERKHQlgAgE1TPROct3CTQNj9nljoSjWAlqPgdaXVs+YYdqBK4PfpHx6nhcvUXf3TUP1eTHQlO+rymx2RP99XLN4cQ7AP3q+aHIiMcUBptru7hnK2lPAfAq57tEACq/NQZwMZN8Hue5HQ57346mp1MK2ePyFcsckhBBCiNKQBKAY6Qi9TPttHzu2tTqb7XsFIHPY8f3DALylgkyFQp7x/eybH0AAwGB+ln3/65bo0fZYbENf9x3pnp8/f+fM5uYrdhszFURn9XcdzudBWn/MAF88ccmSpscbG70g4xRlpBTI2tZMLHYzrr126DW+P/ZYxtatamJlZcWoUMghYyKmq2sMgBMZeA+YT4dSM2Gt2l+Vcb8YA1YqTI7zxeqVK19tf+mlZWhqGrwZjb4oPC/WD9nnRbkMx0rQ/uONDQ0dADoAPD75llseCI0bN15ZW+37/ocIOJ2JTgDReDDTa61FSpGw7yf2fZDjfMT6/tKqZPKijvr6p8sdkxBCCCGCJwlAMeJMa2mp8HbtqlaOM5uIHsu89NLDb7mYra01lE7n+/rxnAGXlZrY2/d8z9tJSq0lrQ9jIpC1HjNniPmGUY6zcs3cuTv6+zsJYM3cuTsOXbq0UbvuRDjOh/t7PJKtJQBfaQ+FfgfgoQBDFOXGzD0DdIZq8sJsAby9Sq+ex5Ild06pqLgqRHSsb+2VUOoDIJoIpXRgx4StBQNhWPvd6hkzNrYz/2K4DCOiof+8EIPIxv/8z10AdgFoBfPj0+6888cAKvxs9hRFdAozn0ZKjWegEkSFz+HM5U0IMoONAWn9EVh77bQbb6xrvfzy7IEfKIQQQoihRBKAYsSYtHx51NV6pslm65TWF1AkUonduxfjmmseRlPTWx/A/A8QTevjNhEy5ohev1FZ2Z3r7u4CM8PaFxloIdf9QWb27E19/21EbzYsXNhZvXRpI4juJ9c9nL1+FPD1HOW2Sv1oaip1srXWH3KTHsXI0tjodQIegL8COHtKOj1DWbsYwFlQagaIgukXaC2g1BhYu2xqKrWjDXi4+EWFGMaIbCuQReHrLgB31SQSEc9x3m99/1RYe5IiehsD1RQK0WvHhcuRDNyTBAyFPsuHHPInMH8fRMOj0lcIIYQQACQBKIa5ybfcMlqPHn0smE8C0Tmk9cdAVOjJ43lgrWfOvPlmdw2Q2/uxTPSWf3dARMRK9doDcPfGjbucyspH2NoXSKnvZWKxdf34lcQBtC9c+GxVInERESWh9eR+JT6YQUrN8I25UlvbzP2dMCxEGfRMDL9s6sqVSWvtl0B0FrnumH4lxPdWSAJOtNZ+e/rtt5+5/oILMsUvKsTIsbahoRvAb3u+MDWdPsVaeyrl8ycw8HblONVQCux5ZUkEcmH4z9XRVOpfGeDBAQ9ACCGEECUjCUAxLE1Opz+kjZmlXHcWG/NuikTGw5jCZL49CpM0x/nHH99reZcCXrB9+fDNDHJdZT3vyN6+3XMs6FvopeegCFbHq68+EK2puYS0Xsb9nQwMaAXE4TgRWNsFYEzAYQpRUm11dU8CqIsmEp8A0XfJcf4tkGEhhcEgJ/q53C1YsqQW0itTiH5ri8V+A+A3aGnR0VzunWzMcfC8j4PoMxQOj2bPG9ghIsyAUuNYqaXTVq78WGtd3ZqB21wIIYQQpaTKHYAQQYmuWDG9OpVqjCaTd2vmJCl1DRxnFpQaz7ncm5N/6GkHBhy56+WX3V4XVGpzn4MoXFhXTG5pGb2vn+jzmqLvmprsqB07fmaN+X89R3r7voa1ANFEZo6DaNxgatguRF9kGhoesp53Afv+owiqmtUYENHp0Ujk88EsKMQIV1trMnV1T7THYiu171+mic6wuVwTWfsSuS6gBu4jOxsDOM5hhvmqAdtUCCGEECUnCUAxpE351a8qo6nU+VWp1N2s9e8B3ADHOVNpfSSINOdy+79zzjzahsO9ZofY91/sT0wEjHI3bpzQn8eK4KxZvDjnEH2JmP9MxVw4EY0CUUQSgGIo65g37xk4zhzy/dVBrclKuZb5kqmJxMlBrSmEAFoXLNjSGov9fmp39zestR/nfL4RxjwBrft3Q6s/CkeQPzs1mfzYwGwohBBCiFKTBOBwwNzf/x+H3P//0V/+ctTU5uZp1en0Z6rT6ZTu7HyRgSQRndnT7H4MG4ODOuZW6GV1fGT37lBv31ZEHX2Njwt7juWxY2v6+lgRvNZ4vM1Yezmsbe139UT/pzMq5TjSQF0MGu1z5rw6avv2RSB6KJAkgrVQrnskK7UYLS3SKFOIgD3e2Oh1NDSsbV+7dpk3YcK/K2M+zcBTUCoPpUqfDFSqkon+e+ZNN4VLu5EQQgghBsKQSwCJ101avnzMoanU+1mpd4D6+CmQ2bFEHzksmTyuJpGIlCjE4jU1qcmJRNWU5ubjo83Ns+3mzQlrzHNQ6qcAYgxUAyhUZ/Vvcp6myspef3/lOC8C6E8Cp4KAQ/rxOFECnQ0N/0fW3kjG9H2oSz9xYfDIsZzNnhJdvXrSQO0rxIGsWbx4BwELwPwXcnvvftAn1oK1/tiUfP6k4hcTQvSqqcluOuusnW3x+D2jt207iX3/62TtCwBKezSYGUx03O5x4+pLt4kQQgghBookAIeoKen0DNd1v6uBP8JxTuxz4otIKa3P84geyWt97aFLl04pTaR9F12yZFR1Ov32Kcnkx6pqar7kKLWSjHkUrrtKuW4tiCqxp8IvgGOZxpijevv3zq5dlog6+3SHfU8FoLWHFx2YCExVLvdDBu4MJOFxMAr9A4+ySt3Jvr906ooVpwzMxkIcWCYWW2eJFsOYVjjFzQJja0Gue6jy/fMH9c0kIYaJNYsX5zoaGm4g4NOwNg3mrRTq9SBD8ZhBjjOGgfOmpNOVpdlECCGEEANFEoBDUHUyeaHW+j4KhS4EkcJewy0OFvs+oNREuO5X9KhR91Q1N58acKgHZeZ994WnNDefHE0m/7M6nV7CkcjdAO5XSv1aRSLfJsf5OBGN4e7uQswB92JjoNepvbsrKny2dk2fEoCF6ZgRAqYFFZ8o3uONjV5I66+wMX+loIYgHEhPVSo5ztk2FLq7Opm8cTAl2sXI1hmLPWaYv0zM+WKPEXIuBwqHG/JEHwkoPCHEAbTF4y+019fHLXAujHm4VElANgYEnATm80uygRBCCCEGjCQAh5jqVOoSKPUtKHUM53LFJ8OsBefzIK3fQ8w/jiaTnwwm0n2b2Nw8dlo6/b7oypULoqnUiq6NG+9X1iaZ6FsUCl1I4fDHSevDgcKFZSmSfm9EhWPEbzFm0iQfSr3S19PV5LoKRHLsc5B5ta6unX2/ia3tHrAm6gDY80BEo8l1L3VCoW/U/Pa3UiUlBgUbidxjjfkjFVkFCGZAqXEATo8uWTIqkOCEEAelMxb7jbF2IXvefSXpC2gtKBweq4B/D3ZhMVQQIFPQhBBimJAE4BBSlUpdTETXgmgC5/OBrs25HEipw1ip26pWrZoV1LrRJUtGVScSH65ubp47NZ2+sTqd/m3YmMcM80/Z2u9BqQa47izS+mgoNZpzuQFJ+u2l1yPAa9avtwx09PnDtLVga6NyHG7w6aipeZCYf1iy41L7wL4PtpbYdWP5dev+a1pLS8WABiBELzbW1u5SRMthzKZi+4hxPg9Wqt5x3aqAwhNCHKTOWOwVu3t3A6y9C8wlSQKC+aSqRKIm2IXFYKfz+RCASQP4mVwIIUQJFXnbXwyUKanUGQRcyUTjYEszWLTnSPDh5Puro8nkXVbrZ8j3X2HmdcrzNlAk8pZ3f2OMUo5zNAOV5PvjWamjiGgKmGcw0XEMjAEQgjGOBUJQSkOp1/r3sbUo1e9zsAjo/VjmhRf6nE4/368LY6VG2127KgB0FxedCNSsWT6n0yuQz3+GHOcI7ufx+X4pXEA5CIWu8Hft2oSmph+hqUmmBIuyykyf3hJdty5OSn2yqMu7Qi/AsT5wKpqabpXnthADq3PRog1HL18+b6fjMDOfCyCwLCAbAyh1BJhnAFgb1LolQ1RpiAb2Tt8wRaFQhLUeh1zRc9SYiAbwQ5cQQojeSAXgEFCTSFQp5mvJdatKniwrrF/FSl1MzD+CUveT1k9zJLLRApv2/iKtNzDzH8D8ADvOHVDqeia6mJU6HUQ1IDoERGMAVADQsBYwpr8Te4NXuEv+b/v4HhPwSr8qAJmnmMrKyUXHJwLXHos9S8yr2Fq/pNMTe8MM9rwQaX199RFHnDCwmwvRi1mzfCiVZGt3Fd0L0BhY5rnR6mqpfhaiDJ6fP39ndXd3PYCfI8h+t4VjwCGy9p1oairZGycBBlzkh0NrQZHIBE00NqCwRjTO5VRAFaW7mPmpIBYSQgjRf5IAHALyzF+CUu8a0Gql/kzY3fOY3r4GG61B4TDAbBhYt68fU9a2w9o+NclnZhDzIT7RhEBiFYGzodAKWPtYX/s7BqLQL208A01oaRmgiSRC7FvI938OIFP0RZ61IOBkVkqmoAtRJo83NnapfP4SWPuvQIdeGQNS6r3Tjj12fHCLvhkDbURU9M0IADBKhQMIacSzjlMV2Od4a8vwoUsIIcQbSQJwkJu+fHmUlfoUua4alIm0oYQI5DigUAjw/S3seQ+yMdeqcHjRvh5ifD/H+fzGvk4CJtcdpY2Ru8+DVMcFF6xVRMvYmOyAVwEChecI86ei2Wxg/TaF6K+1DQ3dBDwKa4N4k2EKhT4WwDpCiH5qW7iw1TJ/HUTBNYy2Fgy8K9/VVbKbm4poO4DiY2YGWTsNAR6DHpGYSRFFA7n+IGKrtSl+ISGEEMWQBOAgZ5T6dwqFjgt66MeIohTIdQFmC99/2OZyXwbwybDvn9XR0HB95nOfe2JfDyWtdxHR09SXJBEzEAqFDFBTfPCiVMZHIqsB/K5siXUiDaKvlGdzId6MmFcxUHyZeaGs9pziIxJCFKOzouJ+eN7NFAnmRD5bC4TDRzklPFprldrOQJ9OXfS+kAWAmppEQqoAi3DcnXe61pijiv6cRARmzirmNcFEJoQQor8kATiIHbZq1QTW+lOBT3MbCYgKX44DWPu8NeYGMM9ylarrWLv2xvb6+sfXNjQccEBHPhTKWea+H40zBgREceGFbn9/BVFaT9fW5hXzw8zslSUAIoD57dHVq48py/5CvMFoY/5CREFVZxx9XEuLNOAXopxqa/PQejXn8xv7dBNzX5hBRI61dmbxi/XOel4bgF1Ft+dgBik1FYD0Iy3C1q1bHQKmB3GjlACjrN0VQFhCCCGKIAnAQcwCk8D8oQHt/TdUEaHnKCeDKEvM7WBeQsZ8WHveB0Zv3XpVe339I6/W1bX3ZTrllkceyRLRi30+JmotlFLvnPKhD0kfwEGMiY4lovL04WMGA+PgeR8oy/5CvEH1EUdkwfx4EDecGKjYmM1KYluIMst0dT1FxvwFjhPMgsxgpapKNQjEMSZPQNE3IthawNq3m0hkVBBxjVTdlZUOgKM5iAGERNnWmppXil9ICCFEMSQBOIhZY6ZQRcWMkk/+HYp6En7kuiCtAeatBKxh5hQRfQ4TJ85sj8c/n4nF/ti6YMGWNYsX5/q1z223eZr5+T5P0yskd6YDqOzXvqL0mImBd4KonH8HK0H0zjLuLwQA4HcbNzKIng6k4pyoQjF/sPiFhBBFaWz0LPAIPK/4Y7UAYAw00TtLNem7beHCVhBtDuQIsFLH2Hx+dDCRjUyOUhUgOjaQ6xDmLsyaJRUNQghRZgHdEhQlQMaYt2lJ/r2OqJDs0xrs+4Axmxl4lYxZw0rdFfb9h9Y2NGwLeltPqa3amByIwgd7DIKNAZQ6HL4vHz4HqapEYhJrfUjZDtgzg0IhZXO548oVghCveeYZRk3N+qIrhQp/I0NQ6sggwhJCFEdp/Udr7TpynJkI4EQJE4VtRUUp3zo39Qwk6v8ezKBweBRyuakAXggsshHG6e4+kh0nUvQRYGsB5peCiUoIIUQxJAE4WDU1EVlbUe4wyk4pkFKFXn7GgPP5l2HMy2B+WhE9ju7u37YtXNhayhBc5k2mu3sdtD74RsjMoIqKyU42O7mUsYn+U647ka0tz/HfNwjiuJMQRWtqskgmnyUiFN3tiUgp5uogwhJCFCcSDj+dzWY7SKmZxb62mRlgPjxnTMn6G7O1LxCzD6C4PayFYT4BLS2PoLZW3mf7w3VPCGgCsAHzuuIXEkIIUSw5AjyYKVWm8aRltudob0UF2Jjt7PsPIp+/nj3vM2TMaToSObM9Hr+0LRZbWerkHwB4RDuhVFufm2gbA2Y+Di0tZU8yibeiQoVBeRWOio+vWrFCEsWi7BgI5G8VaU0AjghiLSFEcV6urd0O5ufZ91H00dpCAnDCaGNKd/2g1KsM5IqNla0FKfWJaYAMJOona+2pgSzE7JPWfw1kLSGEEEWRCkBRXns+4O2Z2msMw9p/WGt/rTzvUWZ+Oaz1pkldXZseb2wsy7RWG4ls1NnsM9D63/t0fKaQAHxHdOvWcAboKl2Eoj/IWu7zcJdSxKFUPsy8s9xxCBEkZpYbH0IMHhtgrUEAQ68IKG1vGq2fgOftBlFxLVSMAZg/nNu9exyAbDDBjRzTbryxwgdOCGg5H573fEBrCSGEKIIkAAcza8vWniwQb7x7u+efC3ePLQAfgA/mrQCeJqInyZhHlO8/wczdkWh095rTTnttcMerAxr4m22srd0VTaWe62uyiJkBoneoCRMikATgoHJcS0toa3f3SQBGB3K8pb+IAGuzaxsaussXhBAlQFT+ClshBACAgKcY2AGiCWV9zzsIE133qS2+3wUiFB2rUqNcopMB/CKQ4EYQf+LEUwgYF8TzhZi9jOc9FUBYQgghiiQJwEGMlcoGMrWtFJQqDOUA3proIwLn80zMPoi6mNmHtV0g6gawhoCXwPwPVupP7ZHIS3jmGR/XXMOD+oLR2o0wpm9NqQsDXI7tNqYk0/JE/0QTiWO2ZrP/xcznQalRZb8YKiTEhSg/LveLQQhRCkTk8RB5fT9dW5uPplJrmXlG0YsVbjqfDUkA9hkRnQUgHMBCsMxP4cILfTQ2Fh+YEOL/s3fnYXZVVf7/P2ufc29VJUEShiRVCRAiTmA7NOoXtbsV7VZBaUeCAqkhiLFF0XYeutuyHX+toq0tWkhSVTfEodRuR9TuVnAGZ1GwVZQASVUGSJiSqnvvOXv9/rhViIhIpc7Nraq8X8+Th+fRunuvgnNy9l1n77WAGSEBOFv198dk48afunuuguoyFSgqxm2SMm/s5Jt6U1t36TZJHmK8xs1uM7NrkizbE0ulq0e7u/90AeD+/gMU+v5xaZtXq7dZmh6q/D7WknaXpeniBdVqp6TRpgaIP6tr48ajlCR/5+5vsnJ5tWq1me8umCHPMpfZjS0NAvi9ha0OAABc+olifILMZlano7E2fdKRIyOLdq1Zc0dB4c17R46MLPLx8ZMtScJ9XvPeG7PvzuqX/ABwECEBOIvVzW5PqtXrLEmOK+QBXIRGh8ho7j8I0uezGH+cuN/ibW0h7Nlzx7aXvvTmVofYDFmajqUx7jCzQ6ezgnF31ZPkREk/lmbeXBPTt2pwsL0qPdFD+Eel6VMUo7xWa3VYU8d/98nsh60OBVB/fzCz4+bIJiEA0zDZbb6Qm7uoZkH3xmL8lkJ4mRfQrNClw8O+fadJ+ngBoR0USnv3PsOT5PBCXpKGIGXZj2c+EACgCK2vgI8/KS+Vdkj6piWzaAOgu6yROD41T5L1QTppdN26G8fOOuv6+Zr8kySv1Xa4++5pH8mOUYrxCRoZ4V5rgc7h4WdXQ/icJcnnrVR6irJs6mh26zWO0N9S6+j4YqtDAfSEJwSZrW71rlgAxYvu95fZjEtemJkshF9PmDW1KVs6Pv4NL6Jxh7uUJB2J2bk6/fRZtJie3dzsDEuSJYWsl/J8X4jxezMfCABQBJISs9jus866PTH7iue5ZlUtwEZzi/YQwmOVJO/tGh7+woqNG5/U6rCa6aZzzrk9SDfvT9dYd/8LXXPNLPoPOP8ds2lTZ2el8j5Lko9YqfQUNyt5vSVNpP80d4/St28+/XSOh6PlTjzkEHP34wpLANpsemgBBzdvNP8oz3igxm19cznLmnos5YadO2+V9O39WXPdA3P345efdtpfFTHYfNc5OPg0mT26iN3gkxsYvlVftGjPjAcDABSCBOBsZuZZkvxIef6bWbULUJLc5fW6ZHaIh/CMmCSfWj48vPGYTZs65T4vv/h5CD9VrVafVjLWXWa2umv16q7mRYYpqy67rL2zUnlFvfG2+WUuLfV6ffbs+rsr93Hl+Yepi4PZYNtVVy02s4cUkQD0PI8mXVVAWICOHBxcvnxwcFWr45jTzI63cjmZ8f1tJnfftWTJkqyYwP6ERmO4/y3k5Xeey9L0SDN74XxdnxbIQgjPslKpq5DSQ0kiM7t81zXXTMx8MABAEUgAznI7zjrrd5I+5THmBb0JLVbjiKtkdpiZ9dXcv91Zqbyoa2DgiFaHVjQzu9pjvH0/FqQlxfiIZsSEhiM2bDika3Dw76o33vgdub/XzY6RezJramfeXZLI3L+6/YYbvtXqUABJ8ra2x0kqpmN5o/PmzI/v4aC3anCwPTH7J0uSr3YNDT2+1fHMRcs+/OGl7r68kMEa69Drrr7mmuYmAM28FMJXzayogr3B3J+4tFL5i4LGm5eWfuITq93syYUkSs2kLKtZnn9F/f3NvV4AAPfZLMwo4e7ScvlDivE7NhsTgFMaX/gkabWVyx/xjo5LuoaH/3ZZpTJvukrWs+yXMrt92h90T93ssU0ICZKWb9x4fLlc/qAnyZcVwl9KCrO5jpkliRTjbiuV/lX9/bNwayIORqFef5LMitpqXpfZtoLGwkEsM+u2Uuk8S5IHeggXkwScPluw4MQgrSjkudhoXvWrA/HsSsvlbZ7nlymdeb9Cz3OpVFqZmp2qyy6jAeI9ueyytFSrnaZS6TjPZp6vszSVYrysJm0vIDoAQEFmcUYJU258wQtGg/TuWK/vmJW7AO/KXV6ryZLkqZK+aNI7l23c+P9aHVYhFi68VtKeae8ADCHI/cSmxHQQ66pUjl4xNPSPIUk+o3K5Z1bv+JtiJrlXLca3bCuVft7qcABJWj0wcKjMniypmF0fUs3r9V/NeCwc1LqGhh6fmb1HeS7PMilJHuzSRcuHhx/T6tjmEpP+xtO002f6fDSTJiYmErNbions3h195JF7JX3FyjMvXShJynN5CN0rtmx5aDEDzi8rt2x5iIfwj4Wto0JQNPufo2u1edsgEADmolmeTcKUbT09X0yksxTjLbM+CSjJs0xu1hbK5ZeFNP1SV6Vy4VEDA/dvdVwzsWvNmjtM+qWmWxnZTDI7/sjBwWKO4Bzkjt68ecmyoaE3RfdLvb39Ak+SB/vEHCgvE4IUgrxef9voMcdcqDVrZnm2EgeLarn8AklF/v1crcb4gwLHw0Fm6YYND49mQxbCIXfuXMsyKU2PN7ORrsHB01ob4dywYnj4cJNOthDSGXcAThK5+/c9SXYXFN69uvzkk7Mo/a/XatcXcQLGG7UAH+Jmb10yMHBoASHOGycODJSyEN6kJDl6xoliqbHeybJbU/dv/Wj9+lnWgQ0ADm6zP5OEO23r7f2au5/tMe7SbGsKck/c5dWqFMLhbvYP2cKFn++sVF584sBAqdWh7S+XrlSM1Wk3AnFfWHKfHzshW6hrcPBZ9Sz7r5Ak/xLS9ASvVjXrd/1JUzv/3PN8Y0zT9+nkk6mHg9lhZCTxEJ5rSdJe4NH523dv28axL+yXVe973+IkTd9pSXLcHzVwynMphGPc7P0rhoef0ZoI55QHuvTwIo50Kknk0g+21es3zXyw+2jHjuusXv+iSsUsG71aldL0lHJHR09/fz/fgSaNdXScbmbP9loxJRctTeX1+k+rd9xxTSEDAgAKw8Nvjtne2/ulJM+f7zH+XCFoxh3SGp+PkmqSvJCOa3eX51PdcI+X9J6x9vZvLt+8+WT198+9Oixp+hO5T3uF5CEsUpo+rhkhzXv9/aFr06YHdW7a9BFPkkGF8ARJ5UK+0Nzd76//mqRscvfmzMYzk7nfEmJ8Td7R8fId3d17C4gUKETXxMQZkk6c7sbmP8ldJv2Aou/YL/39obp48T9LesqffLmT51KSrI7SUOfw8LPp7HrPllUqCzOz061cbv+jROr+MJNCuFJ9fQdsy/2O17xmbx7CV71eL2x96jEmwf1NH+nqekghA85xXZs2PUju75FUzFlrM3m9HqPZt3add94dhYwJACgMCcA5aNu6dV/PzJ5qMY6YtFshSEktEzaYAAAgAElEQVRy3xIVjQVcozivJMW4zWN8t8X4cMX4AbnvnPqZQrlrMmGz0EM4ybLsS8tXr9505ObND9DIyBzYztiQ7Njxg2k3AnGXpWnqMT5mLv2us8GySmVp56pVb3T3b8j9RZIW39l5ukhT90UIt8rsM3J/nMzOsBivkntVSaL7nHA3a3T5TRLJ/XbF+M2YJE/ZtmXL+3atWcNiGLPGkoGBQ6P7S1UqLSnynjL3ywsbDAcT6zz22FcoSV6kEO79WRmjFMLhkipdw8OvOmLDhkMOTIhzRynPHx2kc71ewAnMJJFXqzuD+7UzH2x6rL39CsX4IytoF6DcJbOl1tZ20bJKZWkxg85Nq0dGDo0xXuBmnUXtAJ9c+1xTMvtUIQMCAApFAnCOumnt2rHRnp4zotlzzf1TivHXct9raSpra5OVy3/8p61tqoPbLTHLrpL7xZ6mT9ne1/f60b6+/xvr63tFSJJnyv3Lcr/NSqWZ7zC8O/ep5E2HJcnzS3l+Wef4+EtXXHLJymInao6tr3zluEtXTfuD7lIIS7uq1eOaENa8s/Liiw/rHB5+dpC+oDR9q6RlcrdmdPe1NJ26L77ved431t5+xlhv74/Gurv/U+Xyk82s32P8gWLcJelP319T91iMUTFuVZb9r7mvH+vtfcL2s8/+AR1/Mau4W1tb2zPN7KQid9OaVE+kbxY2IA4aKzZtepiS5GWWJIvuU0I6RslskYfw7rRUev/ywcFVTQ9yjlgyMHBoniSvsRAWFfHctDSVuf96vKPjdwWENy3b16zZJbNvKcassDVp49/JSYn0joM1eXz05s1Lxicm/k1mTy1yXM/zGKSvbe3pmf5aGQDQdHPvCCb+wPa1ay+XdPnyoaETgtmTvF5/uPL8GLm3/0GzCjNTkuz1PL9W0o9ivX7pznPP3XH38badffYVqwYHn1MNocfr9bWWJI+fbFxQfPBZJg9hhSXJ+z3LTuusVC6shvC/u88++7biJyuOST+R+ynT+Yw3dq0tV5qeKInumPdi5fDwY3LpZWZ2tidJo/B7M4QgK5elWu03cv9SNUneu/vss7fe9UdGzzzzJknvut/FF190SKn0JI/xJJ+YuL+kw/9oPLNo7mOSfhulr+/o7f16cwIHZu6ozZsflaXpa83MCksAhiCP8erg/ttiBsTBYvHg4OI8z98a2ttXebV63z84ucwJ5fI6uR+9bHDwn3f09V3RpDDnjLa2thdamp5ayNrNTB5jNPef7Vmz5taZDzh9SZ4PxhifrlLpgYWtCUIIktaWk2Sb+vvfcrC9pKtn2asthD5JSWE7wBvPgB0hxs3FDAgAKBoJwHlie2/v1ZKulqQn9venvzjqqI6kVLrziZ7X6+Gm7u47ZPZnXwVvadR3GTj0wgtHOhYufIG5n2ul0iOakgSMUR6jLE2frCx7YjnPL18+NHTR9t7ekeInK4Zl2Zc9Td84rQ/FKLW1LVGt9nhJH2tOZHPbskrloSHG10fpFCuXD/N6vWnJP2trk9dqO+O+fR9Opc1b+/p+c28/f9sLX7j7NunTavzRskpl4d1/ptTeHreuWTPelICBAnUNDj44y/NBK5dPKKrouzS5m7ZW27Dl+uuLGxTz3gkjI+U94+MfUVvbadNK/t2F12qyNP3bkOePWjE8vNHL5fePvuAFNxYc6pzQWamsVYxvL2rNZkkir9W2eqnUsnXZ1r6+ny8fHr4k5Pkb3ayYhkWNY+Rllcuv7Tz22N1dAwMXHiwdazsrlXMtSV4m91KhjdTcYyKN3NjXRxd4AJilSADOQ5c3iq//cZ26c86Z1ji3vuQle26VLlwxPPy/ufs5Jr1aIYTC669JjfqAISQhhCdLeljn4OCTzP3to+vWzboFfHC/Jpdultnh01mEmplF9+OPHBlZRC243zvu0kvb7ti5843mfoaVSg9yd6nApMQfaNT5k9frlwT3C7ctXPh9rVkz7dUvjTwwV3VVKkfLfaMlSaHJP5lJ9Xotr9cvP9h20mBmdk9MnCezM2b6975nmZQki6P7y61WO6lzaOj8sd7eHxUU5pzQNTh4mru/TUnSVtRabfIwyY8XLllyZSED7qdFef6RfUnSI7P7FzWmxygza7dS6c2jZqb+/g/M67+/+vtD17HHvkpJ8lpJh3iRyb9GKZWtWQjvKG5QAEDRqAGIP2tbT8+v2/P8zeb+Nxbj5yxN86Z0C46xsYB3P1JJ8iJP08s7h4b+SYOD7cVPtv/SJNlnZldMu1FKnstCOKZUra5oTmRzzMhIsqJSOX3vrl3fsyR5vSXJgzzLVOjb6CmNbrxuMf4mxthTNTtvW0/P9/Yn+QfMVZ0f/ehDJH3Ck+SxhX7xU2P3n7t/pt7efkOhA2NeW16pnCrpnyWpkF1deS65Jx7C46xU+lLn8PDb72nH9nzUOTT0XA/h35UkRxf2oraR1NmjJLnk2lNP3b/tmQW5dt26XZLe5e6F7tLzPJfHuERmb+tavfqiI0dGFhU5/qxx2WVp57HHvtvN+t39iCJrv05xs//Y0d29s/CBAQCFIQGI+2RLX9/EaG/vdxYceeQZqtWeJ+lXCiErvFuwGosxuZuk1TLr7wrhiq5Nm/5+thRq3rJwYV1ml9s0f3fPc8lsVZQO7kYgAwOlZZXKQ5dPTFwSzS6R2SPlXi46ISHp992s3Xe6+1tCvX7S9rVrN832OpNAkU4YGSl3btr0XJVKl3oIjy08yd5IEtSD+2buLdxXyzduPN7c/03SkkIbPE02G/MYl8nsdSHG76/ctOm5SwYGDi1uklnE3ZYPDj7RzN6nJDm20PvbTHK/Zuy3v/1ccYPuv9GJieFg9t9K7r1J9LQ11p0LXVqXjo9/+phK5dhiJ2itpUND919+ww2fl/QKSQsKfwakqRTjd8ppenGxAwMAikYCENNy7amnVkf7+j4bpb+R+3sU4w2WpmpGInDyC0HiITzc3T9bLpU+unzjxuMlNWH74TSsWZMrxq+5NL0VlLusXDaL8eHq7z8oj98v27hxdWdb2+uC+zcthOcrxrLci9n5cVdmslJJkna59Kksxr/a3tPzlq0vfOFuScW3EgZmqeWDg6v2TEy83mL8uJJkVTN22FqppJhlX6ktWHBQHbfEDIXwMiXJCc3o7i6pUePNPVGSHJ/H+On29vaPLxsa+vtVg4OLmzPhgbdyZKSjq1LpsxC+4CEcVfT97THWg9m/q1FapvXWr6/HPH+Lud9S+LqzsRYxhfDUmnT50sHBZ8313YAnjIyUl1cqp6chXGpJcoqkUPj9FoLM7HYlyRtuOOusPcUODgAoGglA7Jcd3d07x7q73yD3tZ7nn/E8v9Xam3RSt7GIN5XLZ1iafmlFpfLKlZs2tXQXndVqu1Sr/Wbab6EbR5z/+pjOziObE9nstPLiiw/r3LTprJAkI9bW9laZLWnKUV9NNiIwk7LsSo/xJdt7etbs+jNNPoD55ogNG7pWDA8/z0L4pJLkLW5Wakb91slyEBMufXzXmjXbi58A81YIX1CW/caK3s11d5PXvZVKpwSzz00kyfu6LrnkKXM9ubNiePiB2b59/+pJskFmiwq/v5NEJn13+fj4Z4sdeGa2r1r1E7m/0xqlPYqfIEYpSY5OQvhkaWLiXZ2VykOKn6T5ugYHH7xnfPyfTPq4J8kDm7nm8nr9Q7Z4MS+AAGAOOCh3IaE4Y72935T0za5K5a9Ur3dbkpzrjeRL4XN5tSolySpP0/fEavVFncPDn75DuuD2np6bC5/sz8ja2vYk0mUK4cHTObrqeS61tz++HuOxksaaF+Hs0Tk8fHY0e4mZPVZpqkIbD9xVCI1df9Xqd0KM/64Qvr69BdcG0Epdmzb9nWL8e5f+Kpo9wpJEzaj1NMVKJXm9fkVSrc6KI4KYO7Z3d1+6cnDwxjzPNypJHtWsBMUUr9clM4Vyuder1TPTiYnvLh8evtzNKju6u69r6uQF6qxUHmJSt0unh3L5/k15pprJY9wh9/NmXWfck0/O8krlQ6Fef6i1t69tyu+fZZJZWeXyeapWn945NPSVJE0v3Hr22T8vfrJiLR8aOsGkF3oIz7RS6VjV601Zk0uSlcuKtdoV7TH+f1tOO21fUyYBABSqtUcpMa+sHhg4dKKj4+nu/s+Wpg9u6pfONJXnuUv6dpQu3NHd/YmmTXZP3G35pk3PCx0dI75vemse6+iQxsdf3zkxccGsW1gXaPng4KPN7KVKkqdbmh7u9XrxR32npKmUZTtNuiDN80/dsG7d75ozEQ60VYODi2tJ8mGl6fO9vv+3i5VK8iz7xlh39xOLi671jtiw4ZByCCcphMdF6S/N7BEWwtEKYaqpUvMmbxzBu9lD+IftZ531qeZN9MeO3rx5SZZlAyqVTp/pdaEs+/pod/eTCwwP09C1ceNfKk2HPEn+olmJij8SQmMdUavlJl0t6YcewtDY2rXfOjABTN/RmzcvyfJ8vUtny/0ES9OmJfetvV0+Pv5PY729b2/KBAWY3Jn3JUuSY5u93pS7PM9/6e5fT8w+sK2n59dNm3A/rdy06bgY44vc7OmSjm/6y58kkdzH5L5+tLv7C02bCABQKBKAKNyKj350pbe1vUzSenc/dLKIdPETmclCkMxu8Sz7dBLjv209gEc9lw4PPywx+6xCmFbRbUsSeZ5/uaOj4wW/W7Pm1iaG2BLLN248MpRKL1OML3SpU0nSnM6+0lSB8kxmHwt5/r5t11//i1lTqwiFKCwB2Piy/NM8y3othI4CQzxgPARLQ1jmMa5299Vm9nCTOl26n0mHepKUJU2VTWh+QI3O2kOj1ep6HeCXGYUlABvXxY/yLDtnrl4XrVKSbi7qmdtZqTzKpIuUJI9sZtLij5hNPZMlaae5Xxvdv5q7f37X9ddfpTe/2WXWurqx/f1h5THH3D+GcK6bPV3uqy1N2yebpTVlysmE1+fK5fKLt8zyY/1dlcr5UXqrmd2vKSUOpkxdJ1nmMttm0g/N/QMdRx753WtPOaXWomvENDCQdra1PVYhvFDSE+S+wtI0aeb10ZjZJOl2Sf8ydtRR/6GTT2bdBQBzBAlANMdll6Wrtmw5rhbCO5QkT3b3+zWl2YPU2IXi7ibdFqULfO/ej+z4h3/YWfxEf+jozZuX1PL8glAq9U7rCIqZTKplMR6/s7f3t82L8MBaVqksNLPnWoxvkNkDZJY0bUEeghRjVe5XBek9ixcs+OzVa9Y06WwxWqmoBOCkKPeJptSNOnCCSYlLiczCH7xgORBJvzujCLIYr6rH+NRdfX0HPElQVAJQkuQeJc3166IVPjPW09Nd1GBdw8OPlPRJT9MHqNkJjHvSWEtIUqYYawrhRpe+Htz/s1YuX7NoYmJftnBhdeuaNeNNmb+/P3SdeGK7RkcXaMGCwz3G57p0mkknSFqgEJKmraOmJIksz3eHPD9167p1VzZvooL096fLV616l4XwcrkfmLJGjfWHZDYu9+1u9pUQ42fzEH5aD2Fi94oV+5qSEOvvT4846qiO0NGxIFSrD1GSPMPcnyGzoyW1y8yafn38Xm7Sh0evu+4feekKAHMLq1003crBwVPzJHmrzB5mIaRNfbvfWJj90szeZu5f3dbkGnDLh4dfGtraPujV6rQ+Z0kid3/F2Nq1H5TUxNfWzXfcBz7QdvshhzwySdOXuvtZkpq3AG0cOZHy/HcmfbiW5wM3nXPO7c2ZDLNBwQlAFCEEKc9vkfTMyTqwB1yhCUDsF5M+OdrT8/wix1w+OPjEEMI7vVQ6Sc0+wv7nTCWEG9f7bS5dbe4/c+l7IU1/G7PsFo9x3Nvb95bq9WzbxMRtkqQlS0z39EJqZKSsPXtcY2PW9cAH3q9eraZmtlBmC5MYuxTCMWZ2krs/QWl67J07eQ/Uv4PGLrdx1evvGu3t/dcDM+nMuWRdw8Pvk9nLD/j1MnWNNF7E3CTp+5K+nbj/NIawI2TZ7QphXyyVqiFN927ds6exAL6nHdMDAyVJWlUuJ/UQFoZyuW1i794FpVLpELkfKfeHe5I8TjE+RaXSggN+fUxJU6lev2Th0qUvvPbUU6e3+AUAtBxNQNB0W/v6Lj18ZORn5YmJ85Rlz7M0fYDHqKbsDmt0b3uI5/lmmX1iWaXy/h2/+90P1N/fnCSb2c+9Wt2rEBZO5/fxGGXuz5T0702J6wBZPjR0wl7pBcHsPCXJYjXri7iZrFyW12rbPcavpO4XbO3rm/XFuIF5p1H3byKG8JYd3d0tSf5h/tre13f5ss2bzwr1+ruVps9pyU7AKVPz5rlkdj8L4bGTf148uVPuFiXJtiTLtrh0x/KOjmuU50Hj48EqlRsnE0KSmXmeL9f4+HKVy1GrVpll2QlpkiyU+zGSjrGOjgV3zhVj05o2/ElTJVWybMOSLVveNXpgZ58Rk7z/uuteedHq1cepVHr6AX0hcNfd12ZHKIRTLUlOjSFItZpiCL91aavq9V2xXt+yvKPjduV5sOHhPZJuuPN3MOuK7kdI0oTUEaRVea22NC2Xu1x6oLW3m2KUxajGHtXWbLqzUkmq1793SJ6/5Fck/wBgTmIHIA6oySLFz3XpxaGtbVWc5s65+8xsquj/TZZlX8tC+PedPT3fK3qaoy+8cEl94cL/tnL5UdPtRGdmE9H9Cdt7er5fdFzNtmzjxtVJkvyDS2dYW9tRXqs1u8FHHsw2xBgvGuvt/VFzJsJsxA7AWaRxRDI39zeMdne/p5W10dgB2HrN2AF4p4GB0vL29leYe79KpQWtSnjcq0YNYplZYwdYIzneMPW/Tbn7Tq3J3VvufuBqdt6bEOQxvmcixrff0td3S2uD2T+rBwYOrba1/Zu3tb2oqU3H7qvJa2CyVvXcvj4mX8KqWv1kW6n08uvOPHNHawMCAOyv8Od/BCjO1rVrrx297rp3J2bP91ptSCE0jnUWzV1eqzXeyJbLZyTScGel8tajN29eUuQ0N7zkJXvk/n++H7sZ3b1N7s8tMp4DYXmlcnpIks94CK+2ND3Kq9XmNXlpvG3+sbk/pyOE15D8A1pk8suqx/h2HXbYh1raGAHz3/r19e0dHRfk7mcpz39ppVKrI/pjMUp5Ls8yeb0ur1Z//2diQj4+/vs/ExN/+P/X640Ora3c4TjJ0lQe43/UkuStczX5J0m/W7/+Vpm9UdXqhyT5HyTcWmEyeTfXr487/+6v1TYkWfZKkn8AMLeRAMSB198ft3Z3XzkRwstjjM+3GH819Sa9cJOLc0vTB7j0uqxev3z50FBhRcslycy+4Xl+67QXmyGYmZ12+umnNyEDWryu4eFHdg4NfdnMBixNHyF3NaWe49SbcfdbvF5/RWL296O9vZ+/9uyzbyt+MgB/VuPvZrcsG053737X6Gmn7Wt1SDgIrFmT7+zr+6zHeLpn2bctSZqzTjiIWZoq5vmHx/fu/Zfd8+AZu62n5+Y8hNfJ/WLFGLleZmiqyZT7x6u33PLKG885Zy6dDgcA3AMSgGiZ3WeffduOnp5PKk3/Kri/Wu671KS3tp5lMqnkSfIwC2Ggs1L5zIrBwUdMFV2eiaxW+4K5b532QtNdbtb17VNPfeZMY2gad1vx0Y+u7KxULnDpmwrhaZKWeDOKs08l/szukHSRl8uPHOvu/uDWnp5txU4E4D4LQe5+h2J8V1i48B+2vvKVzemACvwJ23t7r85uv/2UmOf/IvedTXtheDBJEimETFn2nvEkedOtL3nJnlaHVJQd3d17k5tvfrm5v07SzqacMjkYNEo+3Gbu/3rYHXe8aPf558/5BDEAgBqAmEWWDg3dP5j9syXJKRbC0qYkmaY0ugWPu9m7Yoybd/b2/nYmw3UOD1dkdrbcp3dPJYkU42fHurufPZP5m2HlxRcfFkulZ7nUrxCOakrTFmmq86A8xnHl+Q/d7J3be3q+3JzJMNdQA7BFpu7LLNsms7eNdXd/pNUh3RU1AFuvqTUA/4TODRsepVLpPYrxJCuX2/hvP33WSIjtsRg/sq27+02S5u1x/uWVyqnm/h6F8BBJzWk+N99M1i30PN9qMb5utK/vY60OCQBQHHYAYtbY2dv72+09Pb0xz89RvX6FJG9a3Z/GIrAjlEpvScwuXTo0dNaySmXpfo9ntlnue6e7K8EaxyuO7xocfPB+z120/v5y1+Dg38Vy+UJPkg1NTf4lSePLSJ7/3GN8cwzhFJJ/QItNHbXMsiuUpmfOtuQfDl5j55zzw4W33PLUYPZ2j/H/lCTNqSM8H002cvA8/4Xq9Zdu6+5+o+Zx8k+Stnd3Xxprtacrzz8r972zspbkbJKmkuTK86/FPH8eyT8AmH9IAGLW2dHT88WJJHlqcF/j9fpXrVxWs4o5e60mJckDk1LpkmD2xa7h4deduB/Hgsfa2//X3a+b9vx5LpVKq2V23nQ/2wzLh4dP6Vy9+r/c7Asqlc5QnjfnjflUR7kYfxlrtfOC+ynbe3revaO7e2/xkwG4r6ytTYpxl8d4Xrp376ljZ531zVbHBNzVteefX93W0/NWTUw8zbPszYrxRiuXORZ8bxqJnTu8Wn270vQZB1NiZ8e55143tmDB8zzGM5TnVzVzTTmXTa7JfqUY19Y7Op61Y926K1sdEwCgeKyWMKt1VSpH5+7PDGZvsjRd1rTjPlMdZ7OsFmP8XBLjBdv6+q6YzhCdlcqbJL11useAra1NXq3+MEhP29bTc/O04i7I0qGh+6chnO/uz7K2tqO9Xm/eUZk0ler1GEK42Nw/tLWn56rmTIT5gCPAB0iSSO4y9yHFePFob+93Wh3SveEIcOu14gjwHxkYKHV2dDxc0nM8xpeEUunQpjSnmqvMZGkqZdmVufvbjujo+O+r16yptTqsVlk5PPyw3P0cmZ2jNF0orpU7k6EW40fdfWCst/dHLY4IANBEvALDrDba3X3Djp6eDybuT/E8v0hNahIid3mtJpfKFsLpMUk+3VmpXND1sY8dcV+HSMvlT0iadtbM63XJ7GGZ9MjpfnamVo6MdCwfGnp1In3ezV6qJDnaq9Wm7fqTJGXZN6L07Gq9/mqSf0ALTTXeCUEW4//I/Wnj4+OvmO3JP+BO69fXx7q7f7jwiCPeIunxnucfkLT3oG8UYjaV1L/Fa7X1wf25O3p6vngwJ/8kaWtPz1UxhDfK/VTLsi8e1NfJ1DUS4zc8z59RW7z4VST/AGD+O0ifepiLVg0OtmdJcmqU3uDSw2RWlntzGoU0up/lkm4I0r+2jY//1+/Wr7/13j5y3Ac+0LZ38eKPyew5002gWbmsWKttnIjxVbf09d0yk9Dvi+MuvbTtjt27H2Z5/g5Lkr9x9+b/u4zxejd7X5Zlwzedc87txU+E+YgdgAWaSvhJUoyZzPbJ/YtudlFWr/94Lt2X7ABsvVmxA/BujvvAB9rGDz30mGjWa+5newjLJJUlqWnPuNliMpmvPM8l7ZbZxZ7nF22//vob1N9P94u7WVapLDT3x5j0ekuSv/YYO2Q2vxuFTO32kyY8xivd7N+yev1bc+nvfgDAzJAAxJzzxP7+9FerV79U7udLWqUkMeV5cyZrfFl2Sd82s9dr376fjq5fv+9P/XTn8PCzrFT6z2l/IQ1BJt1qMZ6yrafnezML+l7094elq1YdmyTJaxRjr8zamtlp2RpfSG6yLLtE1ep7t5177tbmTIb5igTgDEwm/Gxyl4tnWSbpJkmjHuMXY5L85861a3/W6jD3BwnA1puNCcC7WvbhDy8NCxacbdLz3Gy13I+0cjl4ls2vJE+SNLq21uvjliRbLc8vHc/z9+5et+7GVoc2R1jX4OAZHkKvS39hZl2Wpo0azfPhOpk8Bu6NdfIOi/E6c//wtp6eS2Q2D35BAMB0kADEnLV848bjQwgvjUnyzJAkXU1drKWpLMtucbPBKG3c0d39i3v6sSM2beosx/hND+G4ae8CbGuTT0y8f2zBgtepCcd0llUqxyYxnuYhvMaSZGUz6yRZqSTP83HF+E1zv3C0t/fzTZsM8xoJwD/jLrv6phJ9UzuBJo/z71YIoyZd7zFe5Uny39vXrr28tUHPHAnA1pvtCcA7jYwkS6vVJyV5fqqS5PGK8Vgrl4+Q9Pskz1zaGTiV1J+s26ksG/MYfxVC+OLC8fHhX69ff1OrQ5yrui655PGe5z0ye4TcH2zt7Ycoz+deMnCq9mOSSBMTVZd+6dLPQwibRteu/Z9WhwcAaB0SgJjzlm7a9Kw0xvPd7K8tSdKmJbYmO9d6tfrTIH2kFOPntvT1bb/rj5wwMlLePTHxKiuX3+HV6vTHl27Oa7Un7njhC+8xwbhf3EPn0NBTrFR6rUsnS1LTdkwmiSxJ5NXqj+R+ST3GDRwtwUxMJnqGwqGH/n2sHdTlq+5Zlsnr9TskZZJukXSzSbfK/QaXxlz6v9T9J1v7+n7e4kgLtXJk5LC4b18lLF78dK6LFtm37wujvb1/3+owpuOoDRu6siQ5WWZPcLOHmrTaQlimRhMweYyzM9EzlfRLUylGxXp9u0m/NenHLl2W3XHH/+w677w7Wh3mfLFyeHhFbnaauZ/kITxcMT7U2ttT5fnvr5HZljSe3AmqJJFPTLjMfin3X5n0vRDCf21du/baVocIAGg9EoCYF5aMjBy6YHz8r6P0aiuVnuBZ1rTFmU0uwBXjz6L7Jdt7et4rszsnW/mxjz0sz/PPm9kxPs1Em6WpPMsuGevpWVtErCuGhp4ezV4m6a+sXF7oTfyiPNnN+NcK4YIsyz63627JUWB/nDgwUBpdtOhhFsIKOjb+sRhj3WPcY1Ie0vS2elvbrWFi4vYd3d17Wx1bM504MFAa7eh4uJVKXVwXreHuo2Pd3T9sdRz7a8Xw8OEKYaXyfGVu9lAze6JifIy1tx8mdylG+eQ/D3iyJ4Tf7+ht7ObdK+lqmX3HYrw8M9vSnqY33nDWWXsObGAHn5XDwysys+Msyx+oWbsAAA4SSURBVB7sSfIYk/6fzE6wclnK89ZcI1PNm37fyEOeZb+S+/fN/co8xl+a2e+29/VtOXBBAQDmAhKAmFeO2rChKw/hudHsDZamnc2sDWhJIo9x3Ny/rhDeOXr22d+RJncB7tv3L9bR8SafmNif0fcqhFPG1q791v6G17Vx41Eye6uHcIql6dKm7moIQR5jFswqWYzv2Nnb+9vmTAQAQBP094elD3zgkUmWHZbk+bKYJA9z90eb1OXSY5Smi+58hjYr0TN1fD/PM3f/VQjhmij9wkL4eYzxN0mW3ap6/eZ7qUOMJlsyMHBouaPjsMR9sZLkkcrzE93sBLnfX0mysumNZqYSwpM7QEMIV0v6iUk/qSfJro5abfeWA9BIDgAwd5EAxPwzMpJ0TUysiNKrTTpHZguatiibqr1ldqu7jyR7975l64tfPNp1ySWP9Bi/oiQ5ctpJSDO5+2XbOzr+TmvWTOvDyyqVhYnZq2Oev8hC6JSZNSXxN/VFJcaq3L+XxPh6LVp01dY1a8aLnwwAgANoZCTp2rOnbWLhwrRcq7V5mi4y9weHEJZ7nq+WdISbPdCkutwfKbPyNEZ3d/+VhXC7xzgRQvi1Szcrxl9bCDty6ddtSVKv5nltx/h4TevXU+RyNnK3VUNDbbeVSuWOPC9lHR33S/buPS6aHRfMOuW+0qUVksoyWyWzxfdpHWomuU9I+rWkCZltl3SDue+M0rVpjNd6CLv3TUxkC5csqW295poqXZ4BAPcVCUDMaysqlSfl0psshMeaWYfneVMTgZK2SXpbzf0LZekiK5We5vV6mPZY7uNyf2sw+4yXSrtHzzzzZjW6Ed+jI0dGFrXv2/e4utlrQ5o+uWm/p+48ppxL+j8P4b3b164durfYAACYhxoP/v151v5+zcCzc37jGgEAzCokADH/uVtnpfKPks62JHmkzNS0RiEhyJJEsVa73BrJwOcphLb9WfxZmkpZNi6zr8v9q1G6ctGtt/7s2vPPv2t3EesaHn6ES+sthPUuNe+o71SBafdRq9c/6eXyO0bPPJNugwAAAAAAzHIkAHHQWDowcP+0o+NVLp1mpdJKr9ebu0suz71RHVrT2wH4BwM1ag2qVJKPj2/3GIctxk+PnXPOD48cHHxAyezZHsJ5lqZHe715p4SsVJJn2YRi/IpJg6O9vZ9v2mQAAAAAAKBQJABx0FlWqTw0SOfL/RyVSkFNTJwVKoRGYrFa3SHpezJ7kJVKD/EY1bRmJ5NdCC3PP+chvHds374rqEcEAAAAAMDcQgIQB6XDLrnkfu3SSXJ/rbs/WVJzO7cVKUkauwLzXN6sxJ/urPX3C3d/t4fwlR3d3TubNhkAAAAAAGgaEoA4qK0eGTl03759zzGzf5Z0jEIITauhNxdMdfd1v8ncP648f/founVbRRFqAAAAAADmLBKAgKQVw8OHR7M3mXS6h7BS7s1rpjEbTdUazPNb5X5lTJJ/2n7WWT+UGYk/AAAAAADmOBKAwF10DQ8/0qW3K4THW5Lcz7Ns7hwN3k9WKsnr9VxmP7M8f+9oX9/HWh0TAAAAAAAoDglA4G6O2LDhkJLZmZamfW72/xSClGWtDqt4IciSRJ7n1yjGz+al0gd2nnnmjlaHBQAAAAAAikUCEPgTllUqS5MYny6z823BgkfE8fF5sxvQSiV5lt2hGD/o7hdt7+vb0uqYAAAAAABAc5AABP6MpZ/4xP1DvX6mub9RIbSriZ13m85MFoIU46fM/X2lGH+ypa9votVhAQAAAACA5iEBCNwXAwOlpQsWPDrE+CaT/lZmZUlzZ0dgo7tvpjz/tUlvqOX5ZTedc87trQ4LAAAAAAA0HwlAYDpGRpLlExPPMfe3mHSc0rTks7k+YAiNf7rvkPs7s46ODbvWrLmjtUEBAAAAAIADiQQgsB+O3rx5Sb1ef5Wl6RqF8ACPUbPqaLBZo85frbbbpP/Jzd63o7v7ylaHBQAAAAAADjwSgMAMrBgcfEQ0+yeF8DRL04Ver7c6pEbir16Pcv+O3D861te3qdUxAQAAAACA1iEBCBSgc2jobyyE17j0dLm37L6yNJXy/Osy+2CtVvsadf4AAAAAAAAJQKAgyyqV00KMn5VZaFUM1tEhr1bXj61de1GrYgAAAAAAALNLyxIVwHxj7rOjuYbZvlaHAAAAAAAAZg8SgEBBPM+TVscgSe7OfQ0AAAAAAO5EogAoSAih1uoYZCaZcbQfAAAAAADciQQgUBCL8bpW1v+TmTzLotzHWxYDAAAAAACYdUgAAgUJixbdZNJv1aINeBaCVKvtTmPc0pIAAAAAAADArEQCECjIVimX+7cUWnRbhSBzH7Ms29qaAAAAAAAAwGxEAhAoypo1dZO+3MoSfG72ixtvvHF7ywIAAAAAAACzDglAoDhuZt/xLLtayQFuCByCvF6/zUP4ivr744GdHAAAAAAAzGYkAIECHdrRsUtmmy2EA5qEm9x1+NMHr1z5sQM5LwAAAAAAmP1IAAIFunrNmlqoVjd5vf49K5cP2Lye5+OS3n/5ySdnB2xSAAAAAAAwJ5AABAq27dxztwb3NyvGW+0AHAW2NJXMLhjr6fmvpk8GAAAAAADmHBKAQBMsXrDgW7FW+4hirDezK7CVSlKWjexLkvc2bRIAAAAAADCnHeBOBcDBYdenPpV3POUpVyTlcpukR8us8HvNkkTK8yvzPH/JzT09Y0WPDwAAAAAA5gcSgECT7Lv00trtp5xy+f2SZIHMHqEQiikKGIIsSaLcKxbCi8d6eq4vZFwAAAAAADAvWasDAA4GXcPD61x6tUJ4iIUgz/ajV0eSyEKQYtypGD9Tb29/7a41a+4oPloAAAAAADCfkAAEDpCuTZseFGN8rYXwt5amR0uS8lweo+R+zx8KodHkQ5LXartduiLk+UWj69Z97kDFDQAAAAAA5jYSgMABtqxSeWgS46M9hMfL/VFyf5AtWtSuGKUYpRAkM6lel9fr28zsu57n3zX374+uW/fdVscPAAAAAADmFhKAQIssHhxc3JEknSYd7maLLM/L7n6cpemYS3ssy3I3253X61t3nnvujlbHCwAAAAAAAGCm+vtDq0MAAAAAAAAAAAAAAAAAAAAAAAAAAAAAAAAAAAAAAAAAAAAAAAAAAAAAAAAAAAAAAAAAAAAAAAAAAAAAAAAAAAAAAAAAAAAAAAAAAAAAAAAAAAAAAAAAAAAAAAAAAAAAAAAAAAAAAAAAAAAAAAAAAAAAAAAAAAAAAAAAAAAAAAAAAAAAAAAAAAAAAAAAAAAAAAAAAAAAAAAAAAAAAAAAAAAAAAAAAAAAAAAAAAAAAAAAAAAAAAAAAAAAAAAAAAAAAAAAAAAAAAAAAAAAAAAAAAAAAAAAAAAAAAAAAAAAAAAAAAAAAAAAAAAAAAAAAAAAAAAAAAAAAAAAAAAAAAAAAAAAAAAAAAAAAAAAAAAAAAAAAAAAAAAAAAAAAAAAAAAAAAAAAAAAAAAAAAAAAAAAAAAAAAAAAAAAAAAAAAAAAAAAAAAAAAAAAAAAAAAAAAAAAAAAAAAAAAAAAAAAAAAAAAAAAAAAAAAAAAAAAAAAAAAAAAAAAAAAAAAAAAAAAAAAAAAAAAAAAAAAAAAAAAAAAAAAAAAAAAAAAAAAAAAAAAAAAAAAAAAAAAAAAAAAAAAAAAAAAAAAAAAAAAAAAAAAAAAAAAAAAAAAAAAAAAAAAAAAAAAAAAAAAAAAAAAAAAAAAAAAAAAAAAAAAAAAAAAAAAAAAAAAAAAAAAAAAAAAAAAAAAAAAAAAAAAAAAAAAAAAAAAAAAAAAAAAAAAAAAAAAAAAAAAAAAAAAAAAAAAAAAAAAAAAAAAAAAAAAAAAAAAAAAAAAAAAAAAAAAAAAAAAAAAAAAAAAAAAAAAAAAAAAAAAAAAAAAAAAAAAAAAAAAAAAAAAAAAAAAAAAAAAAAAAAAAAAAAAAAAAAAAAAAAAAAAAAAAAAAAAAAAAAAAAAAAAAAAAAAAAAAAAAAAAAAAAAAAAAAAAAAAAAAAAAAAAAAAAAAAAAAAAAAAAAAAAAAAAAAAAAAAAAAAAAAAAAAAAAAAAAAAAAAAAAAAAAAAAAAAAAAAAAAAAAAAAAAAAAAAAAAAAAAAAAAAAAAAAAAAAAAAAAAAAAAAAAAAAAAAAAAAAAAAAAAAAAAAAAAAAAAAAAAAAAAAAAAAAAAAAAAAAAAAAAAAAAAAAAAAAAAAAAAAAAAAAAAAAAAAAAAAAAAAAAAAAAAAAAAAAAAAAAAAAAAAAAAAAAAAAAAAAAAAAAAAAAAAAAAAAAAAAAAAAAAAAAAAAAAAAAAAAAAAAAAAAAAAAAAAAAAAAAAAAAAAAAAAAAAAAAAAAAAAAAAAAAAAAAAAAAAAAAAAAAAAAAAAAAAAAAAAAAAAAAAAAAAAAAAAAAAAAAAAAAAAAAAAAAAAAAAAAAAAAAAAAAAAAAAAAAAAAAAAAAAAAAAAAAAAAAAAAAAAAAAAAAAAAAAAAAAAAAAAAAAAAAAAAAAAAAAAAAAAAAAAAAAAAAAAAAAAAAAAAAAAAAAAAAAAAAAAAAAAAAAAAAAAAAAAAAAAAAAAAAAAAAAAAAAAAAAAAAAAAAAAAAAAAAAAAAAAAAAAAAAAAAAAAAAAAAAAAAAAAAAAAAAAAAAAAAAAAAAAAAAAAAAAAAAAAAAAAAAAAAAAAAAAAAAAAAAAAAAAAAAAAAAAAAAAAAAAAAAAAAAAAAAAAAAAAAAAAAAAAAAAAAAAAAAAAAAD4/9uDAwEAAAAAQf7WE2xQAQAAAAAAAAAAAAAAAAAAwAvQ0OLQKDT+EgAAAABJRU5ErkJggg==;imageBackground=default;imageBorder=default;" vertex="1" parent="1">
          <mxGeometry x="354.3" y="597" width="120" height="60" as="geometry" />
        </mxCell>
        <mxCell id="BZNns3eWjMlGVyCHPYoQ-16" value="" style="group" vertex="1" connectable="0" parent="1">
          <mxGeometry x="489.3" y="457" width="85.21000000000004" height="60" as="geometry" />
        </mxCell>
        <mxCell id="OzLQzeTqsJq5WQBJtTH5-21" value="" style="rounded=1;whiteSpace=wrap;html=1;fillColor=#ffe6cc;strokeColor=#d79b00;" parent="BZNns3eWjMlGVyCHPYoQ-16" vertex="1">
          <mxGeometry width="85.21" height="60" as="geometry" />
        </mxCell>
        <mxCell id="OzLQzeTqsJq5WQBJtTH5-15" value="" style="shape=image;verticalLabelPosition=bottom;labelBackgroundColor=default;verticalAlign=top;aspect=fixed;imageAspect=0;image=https://static.thenounproject.com/png/1348731-200.png;" parent="BZNns3eWjMlGVyCHPYoQ-16" vertex="1">
          <mxGeometry x="22.600000000000136" y="10" width="40" height="40" as="geometry" />
        </mxCell>
        <mxCell id="BZNns3eWjMlGVyCHPYoQ-18" value="" style="endArrow=classic;startArrow=classic;html=1;rounded=0;exitX=0.5;exitY=0;exitDx=0;exitDy=0;entryX=0.5;entryY=1;entryDx=0;entryDy=0;entryPerimeter=0;" edge="1" parent="1" source="OzLQzeTqsJq5WQBJtTH5-3" target="OzLQzeTqsJq5WQBJtTH5-5">
          <mxGeometry width="50" height="50" relative="1" as="geometry">
            <mxPoint x="329.3" y="357" as="sourcePoint" />
            <mxPoint x="379.3" y="307" as="targetPoint" />
          </mxGeometry>
        </mxCell>
      </root>
    </mxGraphModel>
  </diagram>
</mxfile>
